<svg xmlns="http://www.w3.org/2000/svg" xmlns:xlink="http://www.w3.org/1999/xlink" viewBox="0 0 152.293 152.293">
  <defs>
    <style>
      .cls-1 {
        clip-path: url(#clip-Artboard_1);
      }

      .cls-2 {
        fill: #3fbd53;
      }

      .cls-3 {
        fill: #00bdcc;
      }

      .cls-4 {
        fill: #fff;
      }
    </style>
    <clipPath id="clip-Artboard_1">
      <rect width="152.293" height="152.293"/>
    </clipPath>
  </defs>
  <g id="Artboard_1" data-name="Artboard – 1" class="cls-1">
    <g id="surface1_5_" transform="translate(24 25)">
      <path id="Path_99" data-name="Path 99" class="cls-2" d="M19.309,81.7H9.292A9.324,9.324,0,0,0,0,90.992a10.237,10.237,0,0,0,.527,3Z" transform="translate(0.066 -63.873)"/>
      <path id="Path_100" data-name="Path 100" class="cls-3" d="M265,100.252V81.7h-8.2l5.865,18.552Z" transform="translate(-172.115 -63.873)"/>
      <path id="Path_101" data-name="Path 101" class="cls-3" d="M14.857,74.974h1.977l54.93-20.3a1.99,1.99,0,0,1,1.977.428l1.087,1.087a6.864,6.864,0,0,0,5.042,2.076,1.8,1.8,0,0,1,1.746,1.285l5.14,15.421h5.4L82.374,44,8.3,72.239A9.311,9.311,0,0,0,14.857,74.974Z" transform="translate(-5.499 -38.596)"/>
      <path id="Path_102" data-name="Path 102" class="cls-3" d="M111.416,88.531l-.231-.231L66.8,104.677h55.292L117.743,91.6A10.747,10.747,0,0,1,111.416,88.531Z" transform="translate(-44.723 -68.299)"/>
      <path id="Path_103" data-name="Path 103" class="cls-3" d="M89.9,35.97,84.56,27.6,46.6,52.445Z" transform="translate(-31.179 -27.6)"/>
      <path id="Path_104" data-name="Path 104" class="cls-2" d="M59.31,171.11a12.966,12.966,0,0,1,12.983-12.983h20.4V141.421h-80.9l-.2.066-.033-.066H9.158c-.461,0-.89-.033-1.318-.066a2.225,2.225,0,0,0-.461-.066,7.7,7.7,0,0,1-.857-.132c-.2-.033-.362-.1-.527-.132a5.927,5.927,0,0,1-.725-.2c-.2-.066-.362-.132-.56-.2s-.428-.165-.626-.231c-.2-.1-.362-.2-.56-.3l-.593-.3c-.2-.1-.362-.231-.56-.33a2.846,2.846,0,0,1-.527-.33c-.165-.1-.33-.264-.527-.4-.165-.132-.33-.231-.494-.362s-.33-.3-.494-.428a2.462,2.462,0,0,0-.461-.4L-.2,137.5v57.73a9.324,9.324,0,0,0,9.292,9.292H92.623v-20.43h-20.4A12.973,12.973,0,0,1,59.31,171.11Zm21.451-24.153h6.36v3.723h-6.36Zm-14.861,0h7.447v3.723H65.933v-3.723Zm-51.964,52H9.158a13.9,13.9,0,0,1-3.064-.362L6.95,195a9.81,9.81,0,0,0,2.175.264H13.9Zm0-48.273H9.158a13.9,13.9,0,0,1-3.064-.362l.857-3.592a9.811,9.811,0,0,0,2.175.264H13.9ZM28.8,198.954H21.383V195.23H28.8Zm0-48.273H21.383v-3.723H28.8Zm14.861,48.273H36.244V195.23h7.414Zm0-48.273H36.244v-3.723h7.414Zm14.828,48.273H51.072V195.23h7.414Zm0-48.273H51.072v-3.723h7.414Zm22.275,44.55h6.36v3.723h-6.36Zm-7.414,3.723H65.933V195.23h7.414Z" transform="translate(0.2 -101.287)"/>
      <path id="Path_105" data-name="Path 105" class="cls-2" d="M300.347,181.223a3.72,3.72,0,0,0-3.723-3.723H292.9v7.414h3.723A3.692,3.692,0,0,0,300.347,181.223Z" transform="translate(-196.32 -128.106)"/>
      <path id="Path_106" data-name="Path 106" class="cls-2" d="M231.6,208.628a5.2,5.2,0,0,1-1.219.362c-.1.033-.2.033-.329.066a5.964,5.964,0,0,1-1.318.132H200.892a9.292,9.292,0,0,0,0,18.584h27.844a3.72,3.72,0,0,0,3.723-3.723V208.2a3.319,3.319,0,0,1-.758.4Zm-30.711,15.454a5.569,5.569,0,1,1,5.569-5.569A5.541,5.541,0,0,1,200.892,224.082Z" transform="translate(-128.4 -148.69)"/>
      <path id="Path_107" data-name="Path 107" class="cls-2" d="M217.891,235.745a1.842,1.842,0,0,1-1.845,1.845,1.845,1.845,0,0,1,0-3.691A1.842,1.842,0,0,1,217.891,235.745Z" transform="translate(-143.553 -165.922)"/>
    </g>
  </g>
</svg>
