<svg xmlns="http://www.w3.org/2000/svg" xmlns:xlink="http://www.w3.org/1999/xlink" viewBox="0 0 152.293 152.293">
  <defs>
    <style>
      .cls-1 {
        clip-path: url(#clip-Artboard_13);
      }

      .cls-2 {
        fill: #00bdcc;
      }

      .cls-3 {
        fill: #fff;
      }
    </style>
    <clipPath id="clip-Artboard_13">
      <rect width="152.293" height="152.293"/>
    </clipPath>
  </defs>
  <g id="Artboard_13" data-name="Artboard – 13" class="cls-1">
    
    <path id="Path_193" data-name="Path 193" class="cls-2" d="M857.079,65.784V18.458a9.261,9.261,0,0,0-9.229-9.229H836.333a2.3,2.3,0,0,0-2.288,2.288V23.034a4.614,4.614,0,1,1-9.229,0,4.547,4.547,0,0,1,3.089-4.309,2.306,2.306,0,0,0,1.525-2.174V2.288a2.288,2.288,0,1,0-4.576,0v6.9H790.265a2.3,2.3,0,0,0-2.288,2.288V23a4.673,4.673,0,0,1-9.343.076,4.547,4.547,0,0,1,3.089-4.309,2.306,2.306,0,0,0,1.525-2.174V2.288a2.288,2.288,0,0,0-4.576,0v6.9H764.829a9.261,9.261,0,0,0-9.229,9.229V92.288a9.261,9.261,0,0,0,9.229,9.229h56.517a25.378,25.378,0,1,0,35.733-35.733Zm-41.53,19.563a24.166,24.166,0,0,0,.991,6.9h-51.75V36.915H847.85V60.979a26.024,26.024,0,0,0-6.9-.992A25.381,25.381,0,0,0,815.549,85.347Zm39.89-3.013-15.33,15.292a1.7,1.7,0,0,1-2.441,0l-7.97-7.97a1.726,1.726,0,0,1,2.441-2.441l5.53,5.53a1.7,1.7,0,0,0,2.441,0L853,79.856a1.7,1.7,0,0,1,2.441,0h0A1.823,1.823,0,0,1,855.439,82.334Z" transform="translate(-735.16 20.46)"/>
  </g>
</svg>
