<svg xmlns="http://www.w3.org/2000/svg" xmlns:xlink="http://www.w3.org/1999/xlink" viewBox="0 0 152.293 152.293">
  <defs>
    <style>
      .cls-1 {
        clip-path: url(#clip-Artboard_15);
      }

      .cls-2 {
        fill: #f22;
      }

      .cls-3 {
        fill: #fff;
      }
    </style>
    <clipPath id="clip-Artboard_15">
      <rect width="152.293" height="152.293"/>
    </clipPath>
  </defs>
  <g id="Artboard_15" data-name="Artboard – 15" class="cls-1">
    
    <path id="Path_195" data-name="Path 195" class="cls-2" d="M89.3,74.381H53.736A3.053,3.053,0,0,0,50.7,77.417v6.821a3.053,3.053,0,0,0,3.036,3.036H96.824A34.041,34.041,0,0,1,89.3,74.381Zm23-17.718a4.233,4.233,0,0,0,4.242,4.242h1.83V52.421h-1.83A4.26,4.26,0,0,0,112.3,56.664Zm12.186,18.716h1.83a4.242,4.242,0,0,0,0-8.485h-1.83Zm24.539-11.063A27.616,27.616,0,1,1,121.4,36.7,27.655,27.655,0,0,1,149.021,64.316Zm-24.539-3.452V52.421h9.108a3.036,3.036,0,1,0,0-6.072h-9.108V45.185a3.036,3.036,0,1,0-6.072,0v1.165h-1.872a10.273,10.273,0,1,0,0,20.546h1.83v8.443H109.26a3.036,3.036,0,1,0,0,6.072h9.108v2a3.036,3.036,0,0,0,6.072,0v-2h1.83a10.273,10.273,0,0,0,0-20.546Z" transform="translate(-23.7 12)"/>
  </g>
</svg>
