<svg xmlns="http://www.w3.org/2000/svg" xmlns:xlink="http://www.w3.org/1999/xlink" viewBox="0 0 152.293 152.293">
  <defs>
    <style>
      .cls-1 {
        clip-path: url(#clip-Artboard_16);
      }

      .cls-2 {
        fill: #f22;
      }

      .cls-3 {
        fill: #fff;
      }
    </style>
    <clipPath id="clip-Artboard_16">
      <rect width="152.293" height="152.293"/>
    </clipPath>
  </defs>
  <g id="Artboard_16" data-name="Artboard – 16" class="cls-1">
    
    <path id="Path_196" data-name="Path 196" class="cls-2" d="M359.048,56.705a3.053,3.053,0,0,0-3.036,3.036v6.821a3.053,3.053,0,0,0,3.036,3.036h32.025a33.655,33.655,0,0,1,.458-12.893ZM392.2,74.381h-35.56a3.053,3.053,0,0,0-3.036,3.036v6.821a3.053,3.053,0,0,0,3.036,3.036h43.088A33,33,0,0,1,392.2,74.381Zm23.041-17.718a4.233,4.233,0,0,0,4.242,4.242h1.83V52.421h-1.83A4.233,4.233,0,0,0,415.238,56.664Zm12.1,18.716h1.83a4.242,4.242,0,1,0,0-8.485h-1.83Zm24.58-11.063A27.616,27.616,0,1,1,424.3,36.7,27.655,27.655,0,0,1,451.921,64.316Zm-24.58-3.452V52.421h9.108a3.036,3.036,0,0,0,0-6.072h-9.108V45.185a3.036,3.036,0,0,0-6.072,0v1.165h-1.83a10.273,10.273,0,1,0,0,20.546h1.83v8.443H412.2a3.036,3.036,0,1,0,0,6.072h9.108v2a3.036,3.036,0,0,0,6.072,0v-2h1.83a10.273,10.273,0,1,0,0-20.546Z" transform="translate(-326.879 12)"/>
  </g>
</svg>
