<svg xmlns="http://www.w3.org/2000/svg" xmlns:xlink="http://www.w3.org/1999/xlink" viewBox="0 0 152.293 152.293">
  <defs>
    <style>
      .cls-1 {
        clip-path: url(#clip-Artboard_17);
      }

      .cls-2 {
        fill: #ffce00;
      }

      .cls-3 {
        fill: #fff;
      }
    </style>
    <clipPath id="clip-Artboard_17">
      <rect width="152.293" height="152.293"/>
    </clipPath>
  </defs>
  <g id="Artboard_17" data-name="Artboard – 17" class="cls-1">
    
    <path id="Path_197" data-name="Path 197" class="cls-2" d="M662.936,51.964h36.35a34.023,34.023,0,0,1,9.025-12.893H662.936a3.053,3.053,0,0,0-3.036,3.036v6.821A3.026,3.026,0,0,0,662.936,51.964Zm2.454,4.741a3.053,3.053,0,0,0-3.036,3.036v6.821A3.053,3.053,0,0,0,665.39,69.6h32.025a33.661,33.661,0,0,1,.457-12.893ZM698.5,74.381h-35.56a3.053,3.053,0,0,0-3.036,3.036v6.821a3.053,3.053,0,0,0,3.036,3.036h43.088A34.043,34.043,0,0,1,698.5,74.381Zm23-17.718a4.233,4.233,0,0,0,4.242,4.242h1.83V52.421h-1.83A4.26,4.26,0,0,0,721.5,56.664Zm12.145,18.716h1.83a4.242,4.242,0,0,0,0-8.485h-1.83Zm24.58-11.063A27.616,27.616,0,1,1,730.6,36.7,27.655,27.655,0,0,1,758.221,64.316Zm-24.58-3.452V52.421h9.108a3.036,3.036,0,1,0,0-6.072h-9.108V45.185a3.036,3.036,0,1,0-6.072,0v1.165h-1.83a10.273,10.273,0,1,0,0,20.546h1.83v8.443H718.46a3.036,3.036,0,1,0,0,6.072h9.108v2a3.036,3.036,0,0,0,6.072,0v-2h1.83a10.273,10.273,0,1,0,0-20.546Z" transform="translate(-632.461 12)"/>
  </g>
</svg>
