<svg xmlns="http://www.w3.org/2000/svg" xmlns:xlink="http://www.w3.org/1999/xlink" viewBox="0 0 152.293 152.293">
  <defs>
    <style>
      .cls-1 {
        clip-path: url(#clip-Artboard_18);
      }

      .cls-2 {
        fill: #ffce00;
      }

      .cls-3 {
        fill: #fff;
      }
    </style>
    <clipPath id="clip-Artboard_18">
      <rect width="152.293" height="152.293"/>
    </clipPath>
  </defs>
  <g id="Artboard_18" data-name="Artboard – 18" class="cls-1">
    
    <path id="Path_198" data-name="Path 198" class="cls-2" d="M1020.673,9.857V3.036A3.053,3.053,0,0,0,1017.636,0h-63.8A3.053,3.053,0,0,0,950.8,3.036V9.857a3.053,3.053,0,0,0,3.036,3.036h63.8A3.026,3.026,0,0,0,1020.673,9.857ZM958.827,30.528h36.35a34.023,34.023,0,0,1,9.025-12.893H958.785a3.053,3.053,0,0,0-3.036,3.036v6.821A3.062,3.062,0,0,0,958.827,30.528Zm2.412,4.741a3.053,3.053,0,0,0-3.036,3.036v6.821a3.053,3.053,0,0,0,3.036,3.036h32.025a33.661,33.661,0,0,1,.457-12.893Zm33.148,17.676h-35.56a3.053,3.053,0,0,0-3.036,3.036V62.8a3.053,3.053,0,0,0,3.036,3.036h43.088A33,33,0,0,1,994.387,52.945Zm23.041-17.718a4.233,4.233,0,0,0,4.242,4.242h1.83V30.985h-1.83A4.233,4.233,0,0,0,1017.428,35.227Zm12.1,18.716h1.83a4.242,4.242,0,1,0,0-8.485h-1.83Zm24.58-11.063A27.616,27.616,0,1,1,1026.5,15.264,27.655,27.655,0,0,1,1054.112,42.88Zm-24.58-3.452V30.985h9.108a3.036,3.036,0,1,0,0-6.072h-9.108V23.748a3.036,3.036,0,0,0-6.072,0v1.165h-1.83a10.273,10.273,0,1,0,0,20.546h1.83V53.9h-9.109a3.036,3.036,0,1,0,0,6.072h9.109v2a3.036,3.036,0,1,0,6.072,0v-2h1.83a10.273,10.273,0,1,0,0-20.546h-1.83Z" transform="translate(-926.64 40.7)"/>
  </g>
</svg>
