<svg xmlns="http://www.w3.org/2000/svg" xmlns:xlink="http://www.w3.org/1999/xlink" viewBox="0 0 152.293 152.293">
  <defs>
    <style>
      .cls-1 {
        clip-path: url(#clip-Artboard_33);
      }

      .cls-2 {
        fill: #00bdcc;
      }

      .cls-3 {
        fill: #fff;
      }
    </style>
    <clipPath id="clip-Artboard_33">
      <rect width="152.293" height="152.293"/>
    </clipPath>
  </defs>
  <g id="Artboard_33" data-name="Artboard – 33" class="cls-1">
    
    <path id="Path_199" data-name="Path 199" class="cls-2" d="M69.914,433.557v-6.821a3.053,3.053,0,0,0-3.036-3.036H3.036A3.053,3.053,0,0,0,0,426.736v6.821a3.053,3.053,0,0,0,3.036,3.036h63.8A3.062,3.062,0,0,0,69.914,433.557Zm2.163,17.634v-6.821a3.053,3.053,0,0,0-3.036-3.036H5.24A3.053,3.053,0,0,0,2.2,444.371v6.821a3.053,3.053,0,0,0,3.036,3.036h63.8A3.053,3.053,0,0,0,72.077,451.192ZM10.19,471.862H46.54a34.022,34.022,0,0,1,9.025-12.893H10.148a3.053,3.053,0,0,0-3.036,3.036v6.821A3.089,3.089,0,0,0,10.19,471.862Zm2.412,4.783a3.053,3.053,0,0,0-3.036,3.036V486.5a3.053,3.053,0,0,0,3.036,3.036H44.627a33.658,33.658,0,0,1,.458-12.893ZM45.75,494.28H10.231A3.053,3.053,0,0,0,7.2,497.316v6.821a3.053,3.053,0,0,0,3.036,3.036H53.319A33.6,33.6,0,0,1,45.75,494.28Zm23.041-17.718a4.233,4.233,0,0,0,4.242,4.242h1.83v-8.443h-1.83A4.172,4.172,0,0,0,68.791,476.562Zm12.1,18.716h1.83a4.242,4.242,0,0,0,0-8.485h-1.83Zm24.58-11.1a27.616,27.616,0,1,1-27.616-27.616A27.655,27.655,0,0,1,105.474,484.173Zm-24.58-3.41V472.32H90a3.036,3.036,0,0,0,0-6.072H80.894v-1.164a3.036,3.036,0,1,0-6.072,0v1.164h-1.83a10.273,10.273,0,0,0,0,20.546h1.83v8.443H65.713a3.036,3.036,0,0,0,0,6.072h9.108v2a3.036,3.036,0,1,0,6.072,0v-2h1.83a10.273,10.273,0,0,0,0-20.546Z" transform="translate(23 -392)"/>
  </g>
</svg>
