<svg xmlns="http://www.w3.org/2000/svg" xmlns:xlink="http://www.w3.org/1999/xlink" viewBox="0 0 152.293 152.293">
  <defs>
    <style>
      .cls-1 {
        clip-path: url(#clip-Artboard_34);
      }

      .cls-2 {
        fill: #00bdcc;
      }

      .cls-3 {
        fill: #fff;
      }
    </style>
    <clipPath id="clip-Artboard_34">
      <rect width="152.293" height="152.293"/>
    </clipPath>
  </defs>
  <g id="Artboard_34" data-name="Artboard – 34" class="cls-1">
    
    <path id="Path_200" data-name="Path 200" class="cls-2" d="M308.224,391.157v-6.821a3.053,3.053,0,0,1,3.036-3.036h63.8a3.053,3.053,0,0,1,3.036,3.036v6.821a3.053,3.053,0,0,1-3.036,3.036H311.3A3.089,3.089,0,0,1,308.224,391.157Zm64.591,17.635v-6.821a3.053,3.053,0,0,0-3.036-3.036H305.936a3.053,3.053,0,0,0-3.036,3.036v6.821a3.053,3.053,0,0,0,3.036,3.036h63.8A3.062,3.062,0,0,0,372.814,408.792Zm2.163,17.634v-6.821a3.053,3.053,0,0,0-3.036-3.036h-63.8a3.053,3.053,0,0,0-3.036,3.036v6.821a3.053,3.053,0,0,0,3.036,3.036h63.8A3.053,3.053,0,0,0,374.977,426.426ZM313.09,447.1h36.35a34.021,34.021,0,0,1,9.025-12.893H313.09a3.053,3.053,0,0,0-3.036,3.036v6.821A3.026,3.026,0,0,0,313.09,447.1Zm2.454,4.783a3.053,3.053,0,0,0-3.036,3.036v6.821a3.053,3.053,0,0,0,3.036,3.036h32.025a33.66,33.66,0,0,1,.457-12.893Zm33.106,17.635H313.09a3.053,3.053,0,0,0-3.036,3.036v6.821a3.053,3.053,0,0,0,3.036,3.036h43.088A34.041,34.041,0,0,1,348.65,469.514ZM371.691,451.8a4.233,4.233,0,0,0,4.242,4.242h1.83V447.6h-1.83A4.172,4.172,0,0,0,371.691,451.8Zm12.145,18.716h1.83a4.242,4.242,0,0,0,0-8.484h-1.83v8.484Zm24.58-11.1A27.616,27.616,0,1,1,380.8,431.791,27.655,27.655,0,0,1,408.416,459.408ZM383.836,456v-8.443h9.108a3.036,3.036,0,1,0,0-6.072h-9.108v-1.165a3.036,3.036,0,0,0-6.072,0v1.165h-1.83a10.273,10.273,0,1,0,0,20.546h1.83v8.443h-9.108a3.036,3.036,0,0,0,0,6.072h9.108v2a3.036,3.036,0,0,0,6.072,0v-2h1.83a10.273,10.273,0,1,0,0-20.546Z" transform="translate(-279.18 -357.6)"/>
  </g>
</svg>
