<svg xmlns="http://www.w3.org/2000/svg" xmlns:xlink="http://www.w3.org/1999/xlink" viewBox="0 0 152.293 152.293">
  <defs>
    <style>
      .cls-1 {
        clip-path: url(#clip-Artboard_35);
      }

      .cls-2 {
        fill: #333;
      }

      .cls-3 {
        fill: #fff;
      }
    </style>
    <clipPath id="clip-Artboard_35">
      <rect width="152.293" height="152.293"/>
    </clipPath>
  </defs>
  <g id="Artboard_35" data-name="Artboard – 35" class="cls-1">
    
    <g id="Group_116" data-name="Group 116" transform="translate(8644.778 5532.976)">
      <path id="Path_147" data-name="Path 147" class="cls-2" d="M704.216,483.7h-.208c-.416-.042-.832-.083-1.206-.125a2.012,2.012,0,1,1,.5-3.993l1.123.125a2,2,0,0,1-.208,3.993Zm9.4-.083a2.019,2.019,0,0,1-2-1.788,2.066,2.066,0,0,1,1.747-2.246,10.441,10.441,0,0,0,1.123-.166,2.017,2.017,0,0,1,.582,3.993c-.416.042-.832.125-1.206.166A.527.527,0,0,1,713.616,483.613ZM693.9,481.326a2.114,2.114,0,0,1-.707-.125c-.374-.125-.79-.291-1.164-.458a2.016,2.016,0,1,1,1.5-3.743c.333.125.707.291,1.04.416a2.022,2.022,0,0,1,1.206,2.579A2,2,0,0,1,693.9,481.326Zm29.987-.25a2.018,2.018,0,0,1-1.872-1.289,1.967,1.967,0,0,1,1.164-2.579c.333-.125.707-.291,1.04-.416a2,2,0,0,1,1.539,3.7c-.374.166-.749.333-1.123.458A2.355,2.355,0,0,1,723.889,481.076ZM684.461,476.5a2.2,2.2,0,0,1-1.123-.333c-.333-.25-.665-.457-1-.707a2,2,0,0,1,2.329-3.244c.291.208.624.458.915.665a1.981,1.981,0,0,1-1.123,3.618Zm48.744-.457a1.973,1.973,0,0,1-1.622-.832,2.029,2.029,0,0,1,.457-2.787c.291-.208.624-.457.915-.665a2.017,2.017,0,0,1,2.454,3.2l-1,.749A2.637,2.637,0,0,1,733.205,476.044Zm-56.647-6.571a2.083,2.083,0,0,1-1.5-.665c-.25-.291-.541-.624-.79-.957a2.008,2.008,0,0,1,3.078-2.579l.749.873a1.987,1.987,0,0,1-.166,2.828A2.233,2.233,0,0,1,676.559,469.472Zm64.424-.582a2.121,2.121,0,0,1-1.289-.457,2.03,2.03,0,0,1-.25-2.828c.25-.291.5-.582.707-.873a2.01,2.01,0,0,1,3.119,2.537c-.25.333-.5.624-.79.957A2.013,2.013,0,0,1,740.983,468.89ZM670.611,460.7a2.051,2.051,0,0,1-1.788-1.081c-.166-.374-.374-.749-.541-1.123a2,2,0,0,1,3.618-1.705l.5,1a2,2,0,0,1-.873,2.7A2.268,2.268,0,0,1,670.611,460.7Zm76.153-.665a2.235,2.235,0,0,1-.873-.208,1.981,1.981,0,0,1-.915-2.662l.5-1a2.01,2.01,0,0,1,3.66,1.664c-.166.374-.333.749-.541,1.123A2.116,2.116,0,0,1,746.764,460.031Zm-79.73-9.275a2,2,0,0,1-1.955-1.58c-.083-.416-.166-.79-.25-1.206a2.015,2.015,0,0,1,3.951-.79c.083.374.166.749.25,1.081a2.039,2.039,0,0,1-1.5,2.412A3.073,3.073,0,0,1,667.034,450.756Zm83.14-.749a1.563,1.563,0,0,1-.416-.042,2.03,2.03,0,0,1-1.58-2.371,10.63,10.63,0,0,0,.208-1.123,2.007,2.007,0,0,1,3.951.707c-.083.416-.166.79-.25,1.206A1.892,1.892,0,0,1,750.174,450.008Zm-84.18-9.774h-.042a2.007,2.007,0,0,1-1.955-2.08c0-.416.042-.832.042-1.248a2.02,2.02,0,1,1,4.034.208c0,.374-.042.749-.042,1.123A2.06,2.06,0,0,1,665.994,440.234Zm85.012-.79a1.98,1.98,0,0,1-2-1.913,10.19,10.19,0,0,0-.083-1.123,2.011,2.011,0,0,1,1.872-2.163,2.036,2.036,0,0,1,2.163,1.872c.042.416.042.832.083,1.248a1.973,1.973,0,0,1-1.913,2.08Zm-83.39-9.691a2.436,2.436,0,0,1-.541-.083,2,2,0,0,1-1.372-2.5c.125-.416.25-.79.374-1.165a1.96,1.96,0,0,1,2.5-1.289,1.993,1.993,0,0,1,1.289,2.5c-.125.333-.208.707-.333,1.081A2,2,0,0,1,667.616,429.753Zm81.6-.749a1.959,1.959,0,0,1-1.913-1.414c-.125-.374-.208-.707-.333-1.081a2,2,0,1,1,3.785-1.289c.125.374.25.79.374,1.165a2.016,2.016,0,0,1-1.331,2.5A1.469,1.469,0,0,1,749.218,429Zm-77.484-8.984a1.745,1.745,0,0,1-1-.291,1.979,1.979,0,0,1-.707-2.745c.208-.374.416-.707.624-1.081a1.991,1.991,0,0,1,3.369,2.121c-.208.333-.374.624-.582.957A1.885,1.885,0,0,1,671.734,420.021Zm73.158-.665a1.984,1.984,0,0,1-1.705-.957c-.208-.333-.374-.624-.582-.957a2.013,2.013,0,0,1,3.369-2.2c.208.333.458.707.665,1.04a1.976,1.976,0,0,1-.665,2.745A1.83,1.83,0,0,1,744.892,419.355Zm-66.712-7.777a2.132,2.132,0,0,1-1.414-.582,2.022,2.022,0,0,1-.042-2.828l.873-.873a2,2,0,0,1,2.787,2.87l-.79.79A1.73,1.73,0,0,1,678.18,411.578Zm60.14-.541a2.132,2.132,0,0,1-1.414-.582c-.25-.25-.541-.541-.832-.79a1.949,1.949,0,0,1-.083-2.828,1.986,1.986,0,0,1,2.828-.125c.291.291.582.582.874.832a2.022,2.022,0,0,1,.042,2.828A1.655,1.655,0,0,1,738.321,411.037ZM686.5,405.007a2,2,0,0,1-1.04-3.7c.333-.208.707-.416,1.081-.624a2.012,2.012,0,1,1,2,3.494,7.328,7.328,0,0,0-.957.582A2.709,2.709,0,0,1,686.5,405.007Zm43.421-.374a1.745,1.745,0,0,1-1-.291c-.333-.208-.666-.374-1-.541a1.992,1.992,0,1,1,1.913-3.494c.374.208.707.416,1.081.624a1.979,1.979,0,0,1,.707,2.745A2.081,2.081,0,0,1,729.919,404.632Zm-33.772-3.91a1.959,1.959,0,0,1-1.913-1.414,2.017,2.017,0,0,1,1.331-2.5,10.217,10.217,0,0,1,1.206-.333,2,2,0,1,1,1.04,3.868c-.374.083-.707.208-1.081.291A3.266,3.266,0,0,1,696.148,400.723Zm24.039-.25a2.436,2.436,0,0,1-.541-.083c-.374-.083-.707-.208-1.081-.291a2.017,2.017,0,1,1,1-3.91c.416.083.79.208,1.206.333a2,2,0,0,1,1.373,2.5A2.085,2.085,0,0,1,720.187,400.473Zm-13.642-1.539a2,2,0,0,1-.083-3.993c.416,0,.832-.042,1.248-.042a1.414,1.414,0,0,1,.416.042,1.281,1.281,0,0,1,.416-.042h1.248a2,2,0,0,1-.083,3.993h-1.123a1.7,1.7,0,0,0-.749,0,10.142,10.142,0,0,0-1.123.042C706.629,398.893,706.587,398.934,706.545,398.934Z" transform="translate(-9277.335 -5896.175)"/>
      <path id="Path_148" data-name="Path 148" class="cls-2" d="M756.651,471.628h-1.622v-7.4h7.985a2.662,2.662,0,0,0,0-5.324h-7.944v-1.04a2.662,2.662,0,1,0-5.324,0v1.04h-1.622a9.025,9.025,0,1,0,0,18.05h1.622v7.4h-7.985a2.662,2.662,0,1,0,0,5.324h7.985v1.705a2.662,2.662,0,1,0,5.324,0v-1.747h1.622a9,9,0,1,0-.042-18.009Zm-6.7-.374a4.037,4.037,0,0,1-.707.042c-2.412,0-4.367-1.664-4.367-3.7s1.955-3.7,4.367-3.7c.25,0,.458.042.707.042Zm6.363,13.018c-.25,0-.458-.042-.707-.042v-7.32a4.037,4.037,0,0,1,.707-.042c2.412,0,4.367,1.664,4.367,3.7C760.686,482.65,758.731,484.272,756.318,484.272Z" transform="translate(-9321.202 -5931.396)"/>
    </g>
  </g>
</svg>
