<svg xmlns="http://www.w3.org/2000/svg" xmlns:xlink="http://www.w3.org/1999/xlink" viewBox="0 0 152.293 152.293">
  <defs>
    <style>
      .cls-1 {
        clip-path: url(#clip-Artboard_36);
      }

      .cls-2 {
        fill: #3fbd53;
      }

      .cls-3 {
        fill: #fff;
      }
    </style>
    <clipPath id="clip-Artboard_36">
      <rect width="152.293" height="152.293"/>
    </clipPath>
  </defs>
  <g id="Artboard_36" data-name="Artboard – 36" class="cls-1">
    
    <g id="Group_117" data-name="Group 117" transform="translate(25.16 25.7)">
      <g id="Group_79" data-name="Group 79" transform="translate(57.051 61.517)">
        <g id="Group_78" data-name="Group 78">
          <path id="Path_149" data-name="Path 149" class="cls-2" d="M1136.6,526.715l9.561,5.862,3.071-10.677A35.822,35.822,0,0,1,1136.6,526.715Z" transform="translate(-1136.6 -521.9)"/>
        </g>
      </g>
      <g id="Group_81" data-name="Group 81" transform="translate(31.683 61.552)">
        <g id="Group_80" data-name="Group 80">
          <path id="Path_150" data-name="Path 150" class="cls-2" d="M1063.9,522l3.071,10.677,9.561-5.862A36.668,36.668,0,0,1,1063.9,522Z" transform="translate(-1063.9 -522)"/>
        </g>
      </g>
      <g id="Group_83" data-name="Group 83" transform="translate(60.261 57.295)">
        <g id="Group_82" data-name="Group 82">
          <path id="Path_151" data-name="Path 151" class="cls-2" d="M1162.619,509.8l-6.944,24.042-9.875-6.036,2.9,26.03h16.4V538.971h5.932v14.865h15.842v-30.5Z" transform="translate(-1145.8 -509.8)"/>
        </g>
      </g>
      <g id="Group_85" data-name="Group 85" transform="translate(44.175 69.403)">
        <g id="Group_84" data-name="Group 84">
          <path id="Path_152" data-name="Path 152" class="cls-2" d="M1109.4,546.454l-3.21-1.954-3.21,1.954-3.28,29.973h13.015Z" transform="translate(-1099.7 -544.5)"/>
        </g>
      </g>
      <g id="Group_87" data-name="Group 87" transform="translate(0 57.295)">
        <g id="Group_86" data-name="Group 86">
          <path id="Path_153" data-name="Path 153" class="cls-2" d="M1004.295,533.842,997.386,509.8,973.1,523.339v30.5h15.842V538.971h5.932v14.865h16.4l2.9-26.03Z" transform="translate(-973.1 -509.8)"/>
        </g>
      </g>
      <g id="Group_89" data-name="Group 89" transform="translate(20.203)">
        <g id="Group_88" data-name="Group 88">
          <path id="Path_154" data-name="Path 154" class="cls-2" d="M1061.462,345.6a30.462,30.462,0,1,0,30.462,30.462A30.491,30.491,0,0,0,1061.462,345.6Zm0,52.166h0a2.964,2.964,0,0,1-2.966-2.966h0a2.964,2.964,0,0,1,2.966-2.966h0a2.963,2.963,0,0,1,2.966,2.966h0A2.963,2.963,0,0,1,1061.462,397.766Zm2.966-18.145v2.9a2.889,2.889,0,0,1-2.9,2.9h-.14a2.889,2.889,0,0,1-2.9-2.9v-5.583a2.889,2.889,0,0,1,2.9-2.9h.07a6.734,6.734,0,1,0-6.42-8.793,2.911,2.911,0,0,1-2.757,2.059h-.14a2.888,2.888,0,0,1-2.757-3.768,12.664,12.664,0,1,1,15.039,16.086Z" transform="translate(-1031 -345.6)"/>
        </g>
      </g>
    </g>
  </g>
</svg>
