<svg xmlns="http://www.w3.org/2000/svg" xmlns:xlink="http://www.w3.org/1999/xlink" viewBox="0 0 152.293 152.293">
  <defs>
    <style>
      .cls-1 {
        clip-path: url(#clip-Artboard_2);
      }

      .cls-2 {
        fill: #3fbd53;
      }

      .cls-3 {
        fill: #ffce00;
      }

      .cls-4 {
        fill: #fff;
      }
    </style>
    <clipPath id="clip-Artboard_2">
      <rect width="152.293" height="152.293"/>
    </clipPath>
  </defs>
  <g id="Artboard_2" data-name="Artboard – 2" class="cls-1">
    }
.
    <g id="surface1_3_" transform="translate(23.72 27)">
      <path id="Path_113" data-name="Path 113" class="cls-2" d="M420.456,81.7H397.192a9.324,9.324,0,0,0-9.292,9.292,10.238,10.238,0,0,0,.527,3Z" transform="translate(-387.801 -69.277)"/>
      <path id="Path_114" data-name="Path 114" class="cls-2" d="M652.8,100.252V81.7h-8.2l5.865,18.552Z" transform="translate(-559.915 -69.277)"/>
      <path id="Path_115" data-name="Path 115" class="cls-3" d="M402.69,74.974h1.977l54.93-20.3a1.99,1.99,0,0,1,1.977.428l1.054,1.087a6.864,6.864,0,0,0,5.042,2.076,1.8,1.8,0,0,1,1.746,1.285l5.14,15.421h5.4L470.174,44,396.1,72.206A9.169,9.169,0,0,0,402.69,74.974Z" transform="translate(-393.299 -44)"/>
      <path id="Path_116" data-name="Path 116" class="cls-3" d="M499.216,88.531l-.231-.231L454.6,104.677h55.292L505.543,91.6A10.747,10.747,0,0,1,499.216,88.531Z" transform="translate(-432.523 -73.703)"/>
      <path id="Path_117" data-name="Path 117" class="cls-2" d="M447.077,171.11a12.966,12.966,0,0,1,12.983-12.983h20.4V141.421H399.627l-.2.066-.033-.066h-2.438c-.461,0-.89-.033-1.318-.066a2.225,2.225,0,0,0-.461-.066,7.7,7.7,0,0,1-.857-.132c-.2-.033-.362-.1-.527-.132a5.927,5.927,0,0,1-.725-.2c-.2-.066-.362-.132-.56-.2s-.428-.165-.626-.231c-.2-.1-.362-.2-.56-.3l-.593-.3c-.2-.1-.362-.231-.56-.33a2.845,2.845,0,0,1-.527-.33c-.165-.132-.33-.264-.527-.4-.165-.132-.33-.231-.494-.362s-.329-.3-.494-.428a2.462,2.462,0,0,0-.461-.4l-.066-.066v57.73a9.324,9.324,0,0,0,9.292,9.292h83.531v-20.43h-20.4A13.023,13.023,0,0,1,447.077,171.11Zm21.517-24.153h6.36v3.723h-6.36Zm-14.861,0h7.414v3.723h-7.414Zm-52,52h-4.778a13.9,13.9,0,0,1-3.064-.362L394.75,195a9.811,9.811,0,0,0,2.175.264H401.7v3.691Zm0-48.273h-4.778a13.9,13.9,0,0,1-3.064-.362l.857-3.592a9.812,9.812,0,0,0,2.175.264H401.7v3.691ZM416.6,198.954h-7.414V195.23H416.6Zm0-48.273h-7.414v-3.723H416.6Zm14.861,48.273h-7.414V195.23h7.414Zm0-48.273h-7.414v-3.723h7.414Zm14.828,48.273h-7.414V195.23h7.414Zm0-48.273h-7.414v-3.723h7.414Zm22.308,44.55h6.36v3.723h-6.36Zm-7.447,3.723h-7.414V195.23h7.414Z" transform="translate(-387.6 -106.691)"/>
      <path id="Path_118" data-name="Path 118" class="cls-2" d="M688.147,181.223a3.72,3.72,0,0,0-3.724-3.723H680.7v7.414h3.723A3.692,3.692,0,0,0,688.147,181.223Z" transform="translate(-584.12 -133.51)"/>
      <path id="Path_119" data-name="Path 119" class="cls-2" d="M619.4,208.628a5.2,5.2,0,0,1-1.219.362c-.1.033-.2.033-.329.066a5.964,5.964,0,0,1-1.318.132H588.692a9.292,9.292,0,0,0,0,18.584h27.844a3.72,3.72,0,0,0,3.723-3.723V208.2a3.319,3.319,0,0,1-.758.4Zm-30.711,15.454a5.569,5.569,0,1,1,5.569-5.569A5.541,5.541,0,0,1,588.692,224.082Z" transform="translate(-516.2 -154.094)"/>
      <path id="Path_120" data-name="Path 120" class="cls-2" d="M605.691,235.743a1.842,1.842,0,0,1-1.845,1.845,1.845,1.845,0,1,1,0-3.691A1.8,1.8,0,0,1,605.691,235.743Z" transform="translate(-531.353 -171.324)"/>
    </g>
  </g>
</svg>
