<svg xmlns="http://www.w3.org/2000/svg" xmlns:xlink="http://www.w3.org/1999/xlink" viewBox="0 0 152.293 152.293">
  <defs>
    <style>
      .cls-1 {
        clip-path: url(#clip-Artboard_19);
      }

      .cls-2 {
        fill: #00bdcc;
      }

      .cls-3 {
        fill: #fff;
      }
    </style>
    <clipPath id="clip-Artboard_19">
      <rect width="152.293" height="152.293"/>
    </clipPath>
  </defs>
  <g id="Artboard_19" data-name="Artboard – 19" class="cls-1">
    
    <g id="Group_119" data-name="Group 119" transform="translate(-470.438 -590.588)">
      <path id="Path_155" data-name="Path 155" class="cls-2" d="M26.315,98.68a116.915,116.915,0,0,1,2.953-25.1,1.6,1.6,0,0,1-.2-.6,17.186,17.186,0,0,0-1.913-5.1,1.624,1.624,0,0,1-.168-1.175,1.709,1.709,0,0,1,.839-1.141,1.672,1.672,0,0,1,2.316.671c.3.537.537,1.04.772,1.51.034-.067.034-.134.067-.2A56.662,56.662,0,0,1,34.5,58.98C27.657,51.43,19.8,46.5,12.153,49.517c-19.6,7.047-10.571,43.626-5.973,56.412a24.591,24.591,0,0,0,31.478,14.8c.168-.067.336-.134.47-.2A26.1,26.1,0,0,1,26.315,98.68Zm-.7-36.008a1.7,1.7,0,0,1-2.416-.034,30.694,30.694,0,0,0-7.148-5.3,1.757,1.757,0,0,1-.873-1.846,2.63,2.63,0,0,1,.168-.47,1.672,1.672,0,0,1,2.316-.671,34.061,34.061,0,0,1,7.953,5.906A1.7,1.7,0,0,1,25.61,62.672Z" transform="translate(495.381 581.16)"/>
      <path id="Path_156" data-name="Path 156" class="cls-2" d="M218.5,46.151c-7.249-1.342-13.222,2.316-18.088,8.188,2.517,4.027,5.134,9.933,7.282,18.592a109.854,109.854,0,0,1,3.188,23.927A26.151,26.151,0,0,1,199,118.772a22.934,22.934,0,0,0,5.638,1.745,24.583,24.583,0,0,0,28.626-19.733C235.78,87.428,236.854,48.97,218.5,46.151Zm5.3,14.5a1.705,1.705,0,0,1-2.383-.268,18.3,18.3,0,0,0-3.96-3.725,1.692,1.692,0,0,1,1.711-2.92,19.977,19.977,0,0,1,4.933,4.53A1.744,1.744,0,0,1,223.8,60.648Zm5,15.5a1.279,1.279,0,0,1-.5-.034,1.677,1.677,0,0,1-1.376-1.51,30.407,30.407,0,0,0-2.181-8.625,1.714,1.714,0,0,1,3.155-1.342,33.6,33.6,0,0,1,2.45,9.6A1.762,1.762,0,0,1,228.8,76.152Z" transform="translate(363.201 582.982)"/>
      <path id="Path_159" data-name="Path 159" class="cls-2" d="M120.183,54.248c-2.785-2.685-5.739-3.96-9.061-3.859h-.034c-4.363,0-8.188,1.846-11.444,5.537-2.852,3.222-5.269,7.886-7.182,13.793C89.175,79.921,88,92.337,88,99.855a22.988,22.988,0,0,0,45.975,0C133.908,89.753,130.452,64.215,120.183,54.248Zm-1.275,7.819a1.681,1.681,0,0,1-2.383.2,18.427,18.427,0,0,0-4.6-2.953,1.709,1.709,0,0,1,1.141-3.222,19.729,19.729,0,0,1,5.671,3.557A1.738,1.738,0,0,1,118.908,62.067Zm7.718,14.363a2.632,2.632,0,0,1-.47.067,1.721,1.721,0,0,1-1.644-1.208A30.73,30.73,0,0,0,120.82,67.2a1.694,1.694,0,0,1,2.819-1.879,33.426,33.426,0,0,1,4.128,8.994A1.7,1.7,0,0,1,126.626,76.431Z" transform="translate(436.951 579.985)"/>
    </g>
  </g>
</svg>
