<svg xmlns="http://www.w3.org/2000/svg" xmlns:xlink="http://www.w3.org/1999/xlink" viewBox="0 0 152.293 152.293">
  <defs>
    <style>
      .cls-1 {
        clip-path: url(#clip-Artboard_20);
      }

      .cls-2 {
        fill: #ffce00;
      }

      .cls-3 {
        fill: #fff;
      }
    </style>
    <clipPath id="clip-Artboard_20">
      <rect width="152.293" height="152.293"/>
    </clipPath>
  </defs>
  <g id="Artboard_20" data-name="Artboard – 20" class="cls-1">
    
    <g id="Group_118" data-name="Group 118" transform="translate(-745.478 -591.101)">
      <g id="Group_92" data-name="Group 92" transform="translate(774.198 629.367)">
        <path id="Path_157" data-name="Path 157" class="cls-2" d="M570.309,47.4c-8.591,0-16.645,9.631-21.209,24.968,16.981,4.329,30.606,13.491,30.606,25.37,0,9.564-8.792,17.35-21.075,22.283a25.824,25.824,0,0,0,12.148,2.987,24.7,24.7,0,0,0,16.679-6.208c4.933-4.53,7.551-10.907,7.551-18.491a5.686,5.686,0,0,1,.034-.738c0-.3.034-.6.034-.873C595.042,73.374,584.874,47.4,570.309,47.4Zm5.537,12.887a1.681,1.681,0,0,1-2.383.2,18.427,18.427,0,0,0-4.6-2.953,1.709,1.709,0,0,1,1.141-3.222,19.728,19.728,0,0,1,5.671,3.557A1.707,1.707,0,0,1,575.846,60.287Zm7.752,14.33a2.633,2.633,0,0,1-.47.067,1.721,1.721,0,0,1-1.644-1.208,30.731,30.731,0,0,0-3.691-8.088,1.694,1.694,0,1,1,2.819-1.879,33.425,33.425,0,0,1,4.128,8.994A1.717,1.717,0,0,1,583.6,74.616Z" transform="translate(-500.608 -47.4)"/>
        <path id="Path_158" data-name="Path 158" class="cls-2" d="M480.275,148.433c0-14.6-25.974-24.733-49.3-24.733-8.121,0-14.934,2.752-19.766,7.92A25.16,25.16,0,0,0,404.6,148.9c0,11.678,7.752,24.263,24.733,24.263a5.687,5.687,0,0,1,.738.034c.3,0,.6.034.872.034C454.3,173.165,480.275,163,480.275,148.433Zm-58.761-12.249a14.743,14.743,0,0,0-6.074,11.477,1.7,1.7,0,0,1-1.711,1.611h-.067a1.671,1.671,0,0,1-1.611-1.779,18.014,18.014,0,0,1,7.517-14.095,1.7,1.7,0,1,1,1.946,2.785Zm9.866-2.852a20.408,20.408,0,0,0-5.269.671,2.266,2.266,0,0,1-.47.067,1.711,1.711,0,0,1-.47-3.356,22.884,22.884,0,0,1,6.175-.805,1.719,1.719,0,0,1,1.711,1.711A1.69,1.69,0,0,1,431.38,133.331Z" transform="translate(-404.6 -98.095)"/>
      </g>
    </g>
  </g>
</svg>
