<svg xmlns="http://www.w3.org/2000/svg" xmlns:xlink="http://www.w3.org/1999/xlink" viewBox="0 0 152.293 152.293">
  <defs>
    <style>
      .cls-1 {
        clip-path: url(#clip-Artboard_21);
      }

      .cls-2 {
        fill: #f22;
      }

      .cls-3 {
        fill: #fff;
      }
    </style>
    <clipPath id="clip-Artboard_21">
      <rect width="152.293" height="152.293"/>
    </clipPath>
  </defs>
  <g id="Artboard_21" data-name="Artboard – 21" class="cls-1">
    
    <path id="Path_201" data-name="Path 201" class="cls-2" d="M789.522,50.389h-.034c-4.363,0-8.188,1.846-11.443,5.537-2.853,3.222-5.269,7.886-7.182,13.793-3.289,10.2-4.463,22.619-4.463,30.136a22.988,22.988,0,0,0,45.975,0c0-10.1-3.457-35.639-13.726-45.606C795.764,51.564,792.811,50.288,789.522,50.389Zm7.752,11.678a1.681,1.681,0,0,1-2.383.2,18.425,18.425,0,0,0-4.6-2.953,1.709,1.709,0,0,1,1.141-3.222,19.728,19.728,0,0,1,5.671,3.557A1.738,1.738,0,0,1,797.274,62.067Zm2.383,2.752a1.682,1.682,0,0,1,2.349.47,33.425,33.425,0,0,1,4.128,8.994,1.69,1.69,0,0,1-1.141,2.114,2.632,2.632,0,0,1-.47.067,1.721,1.721,0,0,1-1.644-1.208,30.73,30.73,0,0,0-3.691-8.088A1.654,1.654,0,0,1,799.657,64.819Z" transform="translate(-712.961 -10.117)"/>
  </g>
</svg>
