<svg xmlns="http://www.w3.org/2000/svg" xmlns:xlink="http://www.w3.org/1999/xlink" viewBox="0 0 152.293 152.293">
  <defs>
    <style>
      .cls-1 {
        clip-path: url(#clip-Artboard_22);
      }

      .cls-2 {
        fill: #3fbd53;
      }

      .cls-3 {
        fill: #fff;
      }
    </style>
    <clipPath id="clip-Artboard_22">
      <rect width="152.293" height="152.293"/>
    </clipPath>
  </defs>
  <g id="Artboard_22" data-name="Artboard – 22" class="cls-1">
    
    <g id="Group_120" data-name="Group 120" transform="translate(31.161 27.267)">
      <g id="Group_93" data-name="Group 93">
        <path id="Path_161" data-name="Path 161" class="cls-2" d="M1091.227,70.618a7.663,7.663,0,0,0-10.839-.671,36.55,36.55,0,0,1-3.121,2.517l-6.678-9.061a8.685,8.685,0,0,0-3.557-16.612h-8.39V38h7.282a4.8,4.8,0,0,1,3.188,1.242,4.881,4.881,0,0,1,1.141,1.577,2.846,2.846,0,0,0,2.618,1.711,2.936,2.936,0,0,0,1.175-.235,2.867,2.867,0,0,0,1.443-3.792,10.454,10.454,0,0,0-9.531-6.208h-33.626l-5.94-21.511a14.509,14.509,0,0,0-6.812-8.759A14.34,14.34,0,0,0,1008.572.649a2.9,2.9,0,0,0-2.014,3.524l13.591,49.365a14.623,14.623,0,0,0,6.41,8.524l-7.719,10.47q-1.611-1.208-3.121-2.517a7.705,7.705,0,0,0-5.571-1.913,7.58,7.58,0,0,0-5.269,2.584,7.705,7.705,0,0,0-1.913,5.571,7.579,7.579,0,0,0,2.584,5.269,64.182,64.182,0,0,0,84.971,0,7.788,7.788,0,0,0,.7-10.907ZM1052.9,37.966v8.826h-16.612l-2.416-8.826H1052.9Zm-29.3,37.653,8.557-11.578a12.8,12.8,0,0,0,1.98.134h29.9l8.457,11.444A49.1,49.1,0,0,1,1023.606,75.619Z" transform="translate(-1002.952 -0.117)"/>
      </g>
    </g>
  </g>
</svg>
