<svg xmlns="http://www.w3.org/2000/svg" xmlns:xlink="http://www.w3.org/1999/xlink" viewBox="0 0 152.293 152.293">
  <defs>
    <style>
      .cls-1 {
        clip-path: url(#clip-Artboard_23);
      }

      .cls-2 {
        fill: #00bdcc;
      }

      .cls-3 {
        fill: #3fbd53;
      }

      .cls-4 {
        fill: #fff;
      }
    </style>
    <clipPath id="clip-Artboard_23">
      <rect width="152.293" height="152.293"/>
    </clipPath>
  </defs>
  <g id="Artboard_23" data-name="Artboard – 23" class="cls-1">
    }
.
    <g id="Group_122" data-name="Group 122" transform="translate(28 21.834)">
      <path id="Path_164" data-name="Path 164" class="cls-2" d="M851.473,45.3a14.773,14.773,0,1,0,14.773,14.773A14.785,14.785,0,0,0,851.473,45.3Zm11.8,8.373a1.572,1.572,0,0,1,0,2.2L849.612,69.525a1.572,1.572,0,0,1-2.2,0l-7.107-7.107a1.552,1.552,0,0,1,2.2-2.2l4.912,4.912a1.572,1.572,0,0,0,2.2,0l11.461-11.461A1.572,1.572,0,0,1,863.269,53.673Z" transform="translate(-790.93 -28.457)"/>
      <path id="Path_165" data-name="Path 165" class="cls-3" d="M808.478,25.327a28.026,28.026,0,0,0-10.2-14.624C788.161,2.814,778.821-.461,767.88.1A123.111,123.111,0,0,0,749.8,2.7c-7.889,1.6-13.545,4.279-17.3,8.224a33.143,33.143,0,0,0-6.921,11.312,44.665,44.665,0,0,0-1.6,5.805l-.149.707a27.536,27.536,0,0,1-1.861,5.061c-.372.819-.744,1.637-1.042,2.493a3.345,3.345,0,0,0-.3,1.34c.074.6.819,1.265,1.6,1.972a6.712,6.712,0,0,1,2.828,4.838,5.71,5.71,0,0,1-.744,2.6,76.415,76.415,0,0,1-8.819,14.327c-1.489,1.823-1.786,2.53-1.786,2.791a14.018,14.018,0,0,0,1.154.93,13.775,13.775,0,0,0,1.6.93c1.637.856,3.907,2.009,4.354,4.354a6.9,6.9,0,0,1-.521,4.317c-.335.707-.67,1.3-.968,1.823a4.051,4.051,0,0,0-.3.558c.781.633,1.9,1.451,2.344,1.786a1.988,1.988,0,0,1,.781,1.3,1.866,1.866,0,0,1-.409,1.451,7.957,7.957,0,0,0-.744,1.191c.149.074.26.149.409.223a6.458,6.458,0,0,1,3.572,3.944,8.619,8.619,0,0,1-.186,4.131c-.074.409-.186.781-.223,1.191a7.247,7.247,0,0,0,.484,3.423,3.438,3.438,0,0,0,3.982,2.6A166.587,166.587,0,0,0,745.59,93.35h0c1.861-.633,3.572-1.228,4.949-1.712,1.488-.521,2.642-.93,3.2-1.116,8-2.53,9.638-5.433,9.6-7.405a1.935,1.935,0,1,1,3.87-.074c.112,4.8-4.019,8.6-12.28,11.164-.558.186-1.637.558-3.089,1.079-.447.149-.93.335-1.414.484a30.9,30.9,0,0,1,6.81,12.317h43.947c-.037-.037-.037-.074-.074-.112a16.093,16.093,0,0,1-1.749-2.716,40.222,40.222,0,0,1-2.381-6.066A70.3,70.3,0,0,1,794.561,87.1a36.38,36.38,0,0,1,2.828-18.941,48.631,48.631,0,0,1,5.693-9.042c1.116-1.526,2.27-3.089,3.275-4.651a25.763,25.763,0,0,0,4.13-13.843A60.528,60.528,0,0,0,808.478,25.327ZM774.244,49.813A18.159,18.159,0,1,1,792.4,31.653,18.184,18.184,0,0,1,774.244,49.813Z" transform="translate(-713.7 -0.037)"/>
    </g>
  </g>
</svg>
