<svg xmlns="http://www.w3.org/2000/svg" xmlns:xlink="http://www.w3.org/1999/xlink" viewBox="0 0 152.293 152.293">
  <defs>
    <style>
      .cls-1 {
        clip-path: url(#clip-Artboard_24);
      }

      .cls-2 {
        fill: #ffce00;
      }

      .cls-3 {
        fill: #3fbd53;
      }

      .cls-4 {
        fill: #fff;
      }
    </style>
    <clipPath id="clip-Artboard_24">
      <rect width="152.293" height="152.293"/>
    </clipPath>
  </defs>
  <g id="Artboard_24" data-name="Artboard – 24" class="cls-1">
    }
.
    <g id="Group_121" data-name="Group 121" transform="translate(27.721 21.834)">
      <path id="Path_162" data-name="Path 162" class="cls-2" d="M497.573,45.3a14.773,14.773,0,1,0,14.773,14.773A14.785,14.785,0,0,0,497.573,45.3Zm-1.265,4.093a1.747,1.747,0,0,1,1.749-1.749h0a1.747,1.747,0,0,1,1.749,1.749V62.827a1.747,1.747,0,0,1-1.749,1.749h0a1.747,1.747,0,0,1-1.749-1.749Zm1.749,21.918a1.787,1.787,0,0,1-1.786-1.786,1.786,1.786,0,1,1,1.786,1.786Z" transform="translate(-437.03 -28.457)"/>
      <path id="Path_163" data-name="Path 163" class="cls-3" d="M454.578,25.327a28.027,28.027,0,0,0-10.2-14.624C434.261,2.814,424.883-.461,413.98.1A123.109,123.109,0,0,0,395.9,2.7c-7.889,1.6-13.545,4.279-17.3,8.224a33.142,33.142,0,0,0-6.921,11.312,44.669,44.669,0,0,0-1.6,5.805l-.149.707a27.529,27.529,0,0,1-1.861,5.061c-.372.819-.744,1.637-1.042,2.493a3.344,3.344,0,0,0-.3,1.34c.074.6.819,1.265,1.6,1.972a6.712,6.712,0,0,1,2.828,4.838,5.712,5.712,0,0,1-.744,2.6,76.412,76.412,0,0,1-8.819,14.327c-1.488,1.823-1.786,2.53-1.786,2.791a14,14,0,0,0,1.154.93,13.764,13.764,0,0,0,1.6.93c1.637.856,3.907,2.009,4.354,4.354a6.9,6.9,0,0,1-.521,4.317c-.335.707-.67,1.3-.967,1.823a4.065,4.065,0,0,0-.3.558c.781.633,1.9,1.451,2.344,1.786a1.988,1.988,0,0,1,.781,1.3,1.866,1.866,0,0,1-.409,1.451,7.95,7.95,0,0,0-.744,1.191c.149.074.26.149.409.223a6.459,6.459,0,0,1,3.572,3.944,8.621,8.621,0,0,1-.186,4.131c-.074.409-.186.781-.223,1.191a7.246,7.246,0,0,0,.484,3.423,3.438,3.438,0,0,0,3.982,2.6,166.586,166.586,0,0,0,16.559-4.986h0c1.861-.633,3.572-1.228,4.949-1.712,1.488-.521,2.642-.93,3.2-1.116,8-2.53,9.638-5.433,9.6-7.405a1.935,1.935,0,0,1,3.87-.074c.112,4.8-4.019,8.6-12.28,11.164-.558.186-1.637.558-3.089,1.079-.447.149-.93.335-1.414.484a30.9,30.9,0,0,1,6.81,12.317h43.947c-.037-.037-.037-.074-.074-.112a16.085,16.085,0,0,1-1.749-2.716,40.216,40.216,0,0,1-2.382-6.066A70.317,70.317,0,0,1,440.661,87.1a36.381,36.381,0,0,1,2.828-18.941,48.638,48.638,0,0,1,5.693-9.042c1.116-1.526,2.27-3.089,3.275-4.651a25.764,25.764,0,0,0,4.13-13.843A60.535,60.535,0,0,0,454.578,25.327ZM420.344,49.813A18.159,18.159,0,1,1,438.5,31.653,18.184,18.184,0,0,1,420.344,49.813Z" transform="translate(-359.8 -0.037)"/>
    </g>
  </g>
</svg>
