<svg xmlns="http://www.w3.org/2000/svg" xmlns:xlink="http://www.w3.org/1999/xlink" viewBox="0 0 152.293 152.293">
  <defs>
    <style>
      .cls-1 {
        clip-path: url(#clip-Artboard_25);
      }

      .cls-2 {
        fill: #f22;
      }

      .cls-3 {
        fill: #3fbd53;
      }

      .cls-4 {
        fill: #fff;
      }
    </style>
    <clipPath id="clip-Artboard_25">
      <rect width="152.293" height="152.293"/>
    </clipPath>
  </defs>
  <g id="Artboard_25" data-name="Artboard – 25" class="cls-1">
    }
.
    <g id="Group_124" data-name="Group 124" transform="translate(27.44 21.834)">
      <path id="Path_168" data-name="Path 168" class="cls-2" d="M137.973,45.3a14.773,14.773,0,1,0,14.773,14.773A14.785,14.785,0,0,0,137.973,45.3Zm6.363,18.606a1.737,1.737,0,0,1-2.456,2.456L138.2,62.678l-3.684,3.684a1.737,1.737,0,0,1-2.456-2.456l3.684-3.684-.67-.67-3.014-3.014a1.737,1.737,0,0,1,2.456-2.456l3.684,3.684,3.684-3.684a1.737,1.737,0,0,1,2.456,2.456l-3.014,3.014-.67.67Z" transform="translate(-77.355 -28.457)"/>
      <path id="Path_169" data-name="Path 169" class="cls-3" d="M94.853,25.327A28.027,28.027,0,0,0,84.657,10.7C74.535,2.814,65.2-.461,54.255.1A123.11,123.11,0,0,0,36.17,2.7c-7.889,1.6-13.545,4.279-17.3,8.224A32.638,32.638,0,0,0,11.945,22.2a44.667,44.667,0,0,0-1.6,5.805l-.149.707a27.531,27.531,0,0,1-1.861,5.061c-.372.819-.744,1.637-1.042,2.493a3.345,3.345,0,0,0-.3,1.34c.074.6.819,1.265,1.6,1.972a6.712,6.712,0,0,1,2.828,4.838,5.712,5.712,0,0,1-.744,2.6A81.174,81.174,0,0,1,1.786,61.385C.3,63.209,0,63.916,0,64.176a14,14,0,0,0,1.154.93,13.766,13.766,0,0,0,1.6.93c1.637.856,3.907,2.009,4.354,4.354a6.9,6.9,0,0,1-.521,4.317c-.335.707-.67,1.3-.968,1.823a4.067,4.067,0,0,0-.3.558c.781.633,1.9,1.451,2.344,1.786a1.988,1.988,0,0,1,.781,1.3,1.866,1.866,0,0,1-.409,1.451,7.95,7.95,0,0,0-.744,1.191c.149.074.26.149.409.223a6.459,6.459,0,0,1,3.572,3.944,8.621,8.621,0,0,1-.186,4.131c-.074.409-.186.781-.223,1.191a7.247,7.247,0,0,0,.484,3.423,3.438,3.438,0,0,0,3.982,2.6A166.587,166.587,0,0,0,31.89,93.35h0c1.861-.633,3.572-1.228,4.949-1.712,1.488-.521,2.642-.93,3.2-1.116,8-2.53,9.638-5.433,9.6-7.405a1.935,1.935,0,0,1,3.87-.074c.112,4.8-4.019,8.6-12.28,11.164-.558.186-1.637.558-3.089,1.079-.447.149-.93.335-1.414.484a30.9,30.9,0,0,1,6.81,12.317h43.91c-.037-.037-.037-.074-.074-.112a16.084,16.084,0,0,1-1.749-2.716,40.216,40.216,0,0,1-2.382-6.066A70.315,70.315,0,0,1,80.824,87.1a36.381,36.381,0,0,1,2.828-18.941,48.637,48.637,0,0,1,5.693-9.042c1.116-1.526,2.27-3.089,3.275-4.651a25.764,25.764,0,0,0,4.131-13.843A55.779,55.779,0,0,0,94.853,25.327ZM60.618,49.813A18.159,18.159,0,1,1,78.777,31.653,18.184,18.184,0,0,1,60.618,49.813Z" transform="translate(0 -0.037)"/>
    </g>
  </g>
</svg>
