<svg xmlns="http://www.w3.org/2000/svg" xmlns:xlink="http://www.w3.org/1999/xlink" viewBox="0 0 152.293 152.293">
  <defs>
    <style>
      .cls-1 {
        clip-path: url(#clip-Artboard_26);
      }

      .cls-2 {
        fill: #3fbd53;
      }

      .cls-3 {
        fill: #fff;
      }
    </style>
    <clipPath id="clip-Artboard_26">
      <rect width="152.293" height="152.293"/>
    </clipPath>
  </defs>
  <g id="Artboard_26" data-name="Artboard – 26" class="cls-1">
    
    <g id="Group_123" data-name="Group 123" transform="translate(28.16 21.834)">
      <path id="Path_166" data-name="Path 166" class="cls-2" d="M1175.878,25.264a28.026,28.026,0,0,0-10.2-14.624C1155.6,2.714,1146.221-.561,1135.28,0A123.114,123.114,0,0,0,1117.2,2.6c-7.889,1.6-13.545,4.279-17.3,8.224a33.142,33.142,0,0,0-6.922,11.312,44.645,44.645,0,0,0-1.6,5.805l-.149.707a27.527,27.527,0,0,1-1.861,5.061c-.372.819-.744,1.637-1.042,2.493a3.345,3.345,0,0,0-.3,1.34c.075.6.819,1.265,1.6,1.972a6.712,6.712,0,0,1,2.828,4.838,5.71,5.71,0,0,1-.744,2.6,76.415,76.415,0,0,1-8.819,14.327c-1.489,1.823-1.786,2.53-1.786,2.791a14,14,0,0,0,1.154.93,13.744,13.744,0,0,0,1.6.93c1.637.856,3.907,2.009,4.354,4.354a6.9,6.9,0,0,1-.521,4.317c-.335.707-.67,1.3-.967,1.823a4.066,4.066,0,0,0-.3.558c.781.633,1.9,1.451,2.344,1.786a1.988,1.988,0,0,1,.781,1.3,1.867,1.867,0,0,1-.409,1.451,7.937,7.937,0,0,0-.744,1.191c.149.074.26.149.409.223a6.459,6.459,0,0,1,3.573,3.944,8.623,8.623,0,0,1-.186,4.131c-.074.409-.186.781-.223,1.191a7.247,7.247,0,0,0,.484,3.423,3.438,3.438,0,0,0,3.982,2.6,166.587,166.587,0,0,0,16.559-4.986h0c1.861-.633,3.572-1.228,4.949-1.712,1.488-.521,2.642-.93,3.2-1.116,8-2.53,9.638-5.433,9.6-7.405a1.935,1.935,0,1,1,3.87-.074c.112,4.8-4.019,8.6-12.28,11.164-.558.186-1.637.558-3.089,1.079-.447.149-.93.335-1.414.484a30.9,30.9,0,0,1,6.81,12.317h43.873c-.037-.037-.037-.074-.074-.112a16.086,16.086,0,0,1-1.749-2.716,40.223,40.223,0,0,1-2.381-6.066A70.337,70.337,0,0,1,1161.887,87a36.381,36.381,0,0,1,2.828-18.941,48.644,48.644,0,0,1,5.693-9.042c1.116-1.526,2.27-3.089,3.275-4.651a25.765,25.765,0,0,0,4.13-13.843A54.333,54.333,0,0,0,1175.878,25.264Zm-34.2,24.485A18.159,18.159,0,1,1,1159.84,31.59,18.184,18.184,0,0,1,1141.681,49.75Z" transform="translate(-1081.1 0.063)"/>
      <path id="Path_167" data-name="Path 167" class="cls-2" d="M1218.973,45.3a14.773,14.773,0,1,0,14.773,14.773A14.785,14.785,0,0,0,1218.973,45.3Zm4.13,7.926a2.53,2.53,0,1,1-2.53,2.53A2.533,2.533,0,0,1,1223.1,53.226Zm-7.666,0a2.53,2.53,0,1,1-2.53,2.53A2.533,2.533,0,0,1,1215.438,53.226Zm3.907,17.117a8.481,8.481,0,0,1-8.484-8.484h17.006A8.536,8.536,0,0,1,1219.345,70.344Z" transform="translate(-1158.392 -28.42)"/>
    </g>
  </g>
</svg>
