<svg xmlns="http://www.w3.org/2000/svg" xmlns:xlink="http://www.w3.org/1999/xlink" viewBox="0 0 152.293 152.293">
  <defs>
    <style>
      .cls-1 {
        clip-path: url(#clip-Artboard_30);
      }

      .cls-2 {
        fill: #3fbd53;
      }

      .cls-3 {
        fill: #fff;
      }
    </style>
    <clipPath id="clip-Artboard_30">
      <rect width="152.293" height="152.293"/>
    </clipPath>
  </defs>
  <g id="Artboard_30" data-name="Artboard – 30" class="cls-1">
    
    <g id="Group_127" data-name="Group 127" transform="translate(-4422.371 5325.617)">
      <path id="Path_175" data-name="Path 175" class="cls-2" d="M1028.027,86.055A42.506,42.506,0,0,1,985.5,43.527a42.536,42.536,0,1,1,42.527,42.527Zm0-80.442a37.894,37.894,0,0,0-26.8,64.682A37.894,37.894,0,0,0,1054.823,16.7,37.623,37.623,0,0,0,1028.027,5.612Z" transform="translate(3470.031 -5293.217)"/>
      <path id="Path_176" data-name="Path 176" class="cls-2" d="M1049.739,99.162h-.82a1.358,1.358,0,0,1,.028-2.716h.792a1.358,1.358,0,0,1,0,2.716Zm6.366-.651a1.337,1.337,0,0,1-1.33-1.1,1.381,1.381,0,0,1,1.075-1.613l.764-.17a1.366,1.366,0,1,1,.622,2.66c-.283.057-.538.113-.82.17A.61.61,0,0,1,1056.105,98.511Zm-13.525-.141a.963.963,0,0,1-.283-.028c-.283-.057-.538-.113-.82-.2a1.355,1.355,0,1,1,.651-2.631c.255.057.509.113.735.17a1.406,1.406,0,0,1,1.047,1.641A1.361,1.361,0,0,1,1042.58,98.37Zm20.4-2.037a1.38,1.38,0,0,1-.566-2.631,7.709,7.709,0,0,1,.707-.311,1.361,1.361,0,1,1,1.16,2.462l-.764.34A1.171,1.171,0,0,1,1062.981,96.332Zm-27.22-.283a1.148,1.148,0,0,1-.594-.141,5.938,5.938,0,0,1-.736-.368,1.367,1.367,0,1,1,1.245-2.433l.679.34a1.369,1.369,0,0,1-.594,2.6Zm33.445-3.367a1.436,1.436,0,0,1-1.1-.538,1.329,1.329,0,0,1,.283-1.9c.2-.141.4-.311.622-.481a1.37,1.37,0,0,1,1.7,2.15c-.227.17-.453.34-.651.509A1.955,1.955,0,0,1,1069.206,92.682Zm-39.585-.424a1.392,1.392,0,0,1-.849-.283c-.226-.17-.424-.34-.651-.509a1.368,1.368,0,0,1,1.726-2.122c.2.17.4.311.594.481a1.357,1.357,0,0,1,.226,1.924A1.226,1.226,0,0,1,1029.621,92.258Zm44.848-4.5a1.316,1.316,0,0,1-.877-.34,1.352,1.352,0,0,1-.141-1.924c.17-.2.34-.4.481-.594a1.368,1.368,0,0,1,2.122,1.726c-.17.226-.368.424-.538.651A1.449,1.449,0,0,1,1074.469,87.759Zm-50-.509a1.3,1.3,0,0,1-1.047-.509c-.17-.226-.339-.424-.537-.651a1.37,1.37,0,1,1,2.15-1.7c.17.2.311.4.481.594a1.356,1.356,0,0,1-.2,1.924A1.2,1.2,0,0,1,1024.472,87.25Zm54.043-5.461a1.4,1.4,0,0,1-.651-.17,1.358,1.358,0,0,1-.566-1.839l.339-.679a1.373,1.373,0,1,1,2.462,1.217c-.113.255-.255.509-.368.736A1.372,1.372,0,0,1,1078.515,81.789Zm-57.976-.566a1.338,1.338,0,0,1-1.217-.764c-.113-.255-.255-.509-.368-.764a1.361,1.361,0,1,1,2.462-1.16l.339.679a1.4,1.4,0,0,1-1.217,2.009Zm60.636-6.112a1.949,1.949,0,0,1-.368-.057,1.35,1.35,0,0,1-.962-1.669c.057-.255.141-.481.2-.736a1.355,1.355,0,0,1,2.631.651c-.057.283-.142.538-.2.821A1.366,1.366,0,0,1,1081.175,75.111Zm-63.154-.651a1.385,1.385,0,0,1-1.33-1.047c-.057-.283-.141-.538-.2-.821A1.376,1.376,0,0,1,1019.18,72c.057.255.113.509.17.736a1.347,1.347,0,0,1-.99,1.641A.753.753,0,0,1,1018.02,74.46Zm64.258-6.48h-.057a1.359,1.359,0,0,1-1.3-1.415c0-.255.028-.509.028-.764a1.358,1.358,0,0,1,2.716.057c0,.283-.028.566-.028.821A1.347,1.347,0,0,1,1082.278,67.981Zm-65.22-.679a1.353,1.353,0,0,1-1.358-1.33v-.849a1.438,1.438,0,0,1,.538-1.1,1.4,1.4,0,0,1-.481-1.132c.028-.283.028-.566.057-.821a1.363,1.363,0,1,1,2.716.226c-.028.255-.028.509-.057.764a1.3,1.3,0,0,1-.538.99,1.41,1.41,0,0,1,.481,1.047v.764a1.324,1.324,0,0,1-1.33,1.386C1017.086,67.3,1017.058,67.3,1017.058,67.3Zm64.767-6.508a1.336,1.336,0,0,1-1.33-1.132c-.057-.255-.085-.509-.141-.764a1.371,1.371,0,1,1,2.688-.538c.057.283.113.538.17.821a1.372,1.372,0,0,1-1.1,1.585A1.3,1.3,0,0,1,1081.825,60.794Zm-63.466-3.509a1.913,1.913,0,0,1-.4-.057,1.376,1.376,0,0,1-.934-1.7c.085-.255.17-.538.255-.792a1.369,1.369,0,0,1,2.6.849c-.085.255-.141.481-.226.736A1.333,1.333,0,0,1,1018.36,57.285Zm61.428-3.4a1.31,1.31,0,0,1-1.245-.849c-.113-.226-.2-.481-.311-.707a1.368,1.368,0,0,1,2.49-1.132l.34.764a1.353,1.353,0,0,1-.736,1.783A1.384,1.384,0,0,1,1079.788,53.89Zm-58.627-3.254a1.315,1.315,0,0,1-.651-.17,1.382,1.382,0,0,1-.538-1.867c.141-.255.283-.481.425-.736a1.364,1.364,0,1,1,2.348,1.386c-.141.226-.255.453-.368.679A1.436,1.436,0,0,1,1021.161,50.636Zm55.119-3.056a1.342,1.342,0,0,1-1.1-.566c-.142-.2-.311-.424-.453-.622a1.355,1.355,0,0,1,2.179-1.613c.17.226.34.453.481.679a1.38,1.38,0,0,1-.311,1.9A1.688,1.688,0,0,1,1076.28,47.58Zm-50.959-2.8a1.387,1.387,0,0,1-.905-.34,1.352,1.352,0,0,1-.113-1.924c.2-.2.368-.424.566-.622a1.361,1.361,0,1,1,1.981,1.867c-.17.2-.34.368-.509.566A1.275,1.275,0,0,1,1025.32,44.779Zm46.149-2.575a1.388,1.388,0,0,1-.906-.34c-.2-.17-.4-.34-.566-.509a1.364,1.364,0,0,1,1.783-2.066c.2.17.424.368.622.538a1.378,1.378,0,0,1,.113,1.924A1.463,1.463,0,0,1,1071.469,42.2ZM1030.7,39.969a1.358,1.358,0,0,1-.792-2.462c.226-.17.453-.311.679-.481a1.366,1.366,0,0,1,1.528,2.264,5,5,0,0,0-.622.453A1.6,1.6,0,0,1,1030.7,39.969Zm34.916-1.952a1.506,1.506,0,0,1-.679-.17c-.226-.113-.453-.255-.679-.368a1.361,1.361,0,0,1,1.273-2.405c.255.141.481.255.736.4a1.353,1.353,0,0,1-.651,2.547Zm-28.634-1.585a1.326,1.326,0,0,1-1.245-.821,1.353,1.353,0,0,1,.736-1.783c.255-.113.509-.226.764-.311a1.371,1.371,0,0,1,1.019,2.547c-.226.085-.481.2-.707.283A2.113,2.113,0,0,1,1036.978,36.432Zm21.985-1.217a1.908,1.908,0,0,1-.4-.057,7.087,7.087,0,0,0-.736-.2,1.362,1.362,0,1,1,.707-2.631c.283.085.538.141.792.226a1.376,1.376,0,0,1,.934,1.7A1.333,1.333,0,0,1,1058.963,35.215Zm-15.081-.821a1.336,1.336,0,0,1-1.33-1.132,1.372,1.372,0,0,1,1.1-1.585c.283-.057.538-.085.821-.141a1.361,1.361,0,1,1,.424,2.688c-.255.028-.509.085-.764.113A.42.42,0,0,1,1043.882,34.395Zm8.008-.453h-.085a6.893,6.893,0,0,0-.764-.028,1.359,1.359,0,0,1-1.3-1.415,1.342,1.342,0,0,1,1.415-1.3,7.476,7.476,0,0,1,.82.057,1.345,1.345,0,0,1-.085,2.688Z" transform="translate(3448.376 -5314.87)"/>
    </g>
  </g>
</svg>
