<svg xmlns="http://www.w3.org/2000/svg" xmlns:xlink="http://www.w3.org/1999/xlink" viewBox="0 0 152.293 152.293">
  <defs>
    <style>
      .cls-1 {
        clip-path: url(#clip-Artboard_31);
      }

      .cls-2 {
        fill: #3fbd53;
      }

      .cls-3 {
        fill: #fff;
      }
    </style>
    <clipPath id="clip-Artboard_31">
      <rect width="152.293" height="152.293"/>
    </clipPath>
  </defs>
  <g id="Artboard_31" data-name="Artboard – 31" class="cls-1">
    
    <g id="Group_126" data-name="Group 126" transform="translate(-4517.967 5325.617)">
      <path id="Path_177" data-name="Path 177" class="cls-2" d="M1368.427,86.055A42.506,42.506,0,0,1,1325.9,43.527a42.536,42.536,0,1,1,42.527,42.527Zm0-80.442a37.894,37.894,0,0,0-26.8,64.682A37.894,37.894,0,0,0,1395.223,16.7,37.575,37.575,0,0,0,1368.427,5.612Z" transform="translate(3225.947 -5293.217)"/>
      <path id="Path_179" data-name="Path 179" class="cls-2" d="M1393.524,35.9a32.624,32.624,0,1,0,32.624,32.624A32.616,32.616,0,0,0,1393.524,35.9Zm-.2,52.091h0a2.688,2.688,0,0,1,0-5.376h0a2.688,2.688,0,1,1,0,5.376Zm2.688-16.383v2.547a2.687,2.687,0,0,1-2.688,2.688h0a2.687,2.687,0,0,1-2.688-2.688v-4.9a2.687,2.687,0,0,1,2.688-2.688,6.083,6.083,0,1,0-5.8-7.923,2.65,2.65,0,0,1-2.547,1.839h0a2.661,2.661,0,0,1-2.547-3.48,11.435,11.435,0,1,1,13.582,14.6Z" transform="translate(3200.85 -5318.242)"/>
    </g>
  </g>
</svg>
