<svg xmlns="http://www.w3.org/2000/svg" xmlns:xlink="http://www.w3.org/1999/xlink" viewBox="0 0 152.293 152.293">
  <defs>
    <style>
      .cls-1 {
        clip-path: url(#clip-Artboard_32);
      }

      .cls-2 {
        fill: #3fbd53;
      }

      .cls-3 {
        fill: #fff;
      }
    </style>
    <clipPath id="clip-Artboard_32">
      <rect width="152.293" height="152.293"/>
    </clipPath>
  </defs>
  <g id="Artboard_32" data-name="Artboard – 32" class="cls-1">
    
    <g id="Group_125" data-name="Group 125" transform="translate(-4614.195 5325.391)">
      <path id="Path_178" data-name="Path 178" class="cls-2" d="M1707.527,86.855a42.536,42.536,0,0,1-30.078-72.6A42.536,42.536,0,0,1,1737.605,74.4,42.292,42.292,0,0,1,1707.527,86.855Zm0-80.442a37.894,37.894,0,0,0-26.8,64.682A37.894,37.894,0,0,0,1734.323,17.5,37.574,37.574,0,0,0,1707.527,6.412Z" transform="translate(2982.795 -5293.791)"/>
      <path id="Path_180" data-name="Path 180" class="cls-2" d="M1732.624,36.7a32.624,32.624,0,1,0,32.624,32.624A32.616,32.616,0,0,0,1732.624,36.7Zm-12.167,19.184a4.527,4.527,0,1,1,4.527,4.527A4.522,4.522,0,0,1,1720.457,55.884Zm19.524,28.8a2.041,2.041,0,1,1-2.886,2.886l-4.358-4.357-4.357,4.357a2.041,2.041,0,0,1-2.886-2.886l4.357-4.357-.792-.792-3.565-3.565a2.041,2.041,0,0,1,2.886-2.886l4.357,4.357,4.358-4.357a2.041,2.041,0,1,1,2.886,2.886l-3.565,3.565-.792.792Zm.934-24.277a4.527,4.527,0,1,1,4.527-4.527A4.522,4.522,0,0,1,1740.915,60.411Z" transform="translate(2957.698 -5318.815)"/>
    </g>
  </g>
</svg>
