<svg xmlns="http://www.w3.org/2000/svg" xmlns:xlink="http://www.w3.org/1999/xlink" viewBox="0 0 152.293 152.293">
  <defs>
    <style>
      .cls-1 {
        clip-path: url(#clip-Artboard_4);
      }

      .cls-2 {
        fill: #3fbd53;
      }

      .cls-3 {
        fill: #00bdcc;
      }

      .cls-4 {
        fill: #fff;
      }
    </style>
    <clipPath id="clip-Artboard_4">
      <rect width="152.293" height="152.293"/>
    </clipPath>
  </defs>
  <g id="Artboard_4" data-name="Artboard – 4" class="cls-1">
    }
.
    <g id="Group_131" data-name="Group 131" transform="translate(10 10.967)">
      <path id="Path_181" data-name="Path 181" class="cls-2" d="M89.3,244.862a1.985,1.985,0,0,1-.692-.106A65.99,65.99,0,0,1,45,200.212H42.308a32.77,32.77,0,0,0-11.735,2.182,2.439,2.439,0,0,1-1.836-.053,2.285,2.285,0,0,1-1.224-1.357,11.749,11.749,0,0,0-8.728-7.584v15.806a2.348,2.348,0,0,1-.612,1.6,32.983,32.983,0,0,0-7.557,13.544,2.363,2.363,0,0,1-2.262,1.73H0v14.1H8.355a2.31,2.31,0,0,1,2.262,1.73,32.815,32.815,0,0,0,7.557,13.544,2.373,2.373,0,0,1,.639,1.6v16.019h14.1v-5.4a2.312,2.312,0,0,1,.851-1.809,2.393,2.393,0,0,1,1.969-.479,34,34,0,0,0,6.572.665H65.8a32.026,32.026,0,0,0,6.572-.665,2.393,2.393,0,0,1,1.969.479,2.308,2.308,0,0,1,.851,1.809v5.4H89.3V257.022a2.348,2.348,0,0,1,.612-1.6,32.765,32.765,0,0,0,7.584-13.6,69.514,69.514,0,0,1-7.5,2.927A1.984,1.984,0,0,1,89.3,244.862Zm-63.463-14.1a4.71,4.71,0,1,1,4.71-4.71A4.7,4.7,0,0,1,25.837,230.759Z" transform="translate(0 -141.938)"/>
      <path id="Path_182" data-name="Path 182" class="cls-2" d="M219.2.213,218.908,0l-.293.186A79.7,79.7,0,0,1,176.6,13.6v26.05a61.282,61.282,0,0,0,42.308,58.46,61.316,61.316,0,0,0,42.308-58.46V13.6A79.906,79.906,0,0,1,219.2.213Zm37.306,39.435a56.347,56.347,0,0,1-36.774,53.192,2.211,2.211,0,0,1-1.65,0,56.321,56.321,0,0,1-36.774-53.192V20.17a2.361,2.361,0,0,1,2.1-2.342,83.665,83.665,0,0,0,34.3-11.5,2.33,2.33,0,0,1,2.421,0,84.1,84.1,0,0,0,34.3,11.522,2.361,2.361,0,0,1,2.1,2.342V39.648Z" transform="translate(-129.608 0)"/>
      <path id="Path_183" data-name="Path 183" class="cls-3" d="M244.886,41.6A88.084,88.084,0,0,1,212,52.776v17.4a51.721,51.721,0,0,0,32.889,48.482,51.618,51.618,0,0,0,32.889-48.482V52.8A88.288,88.288,0,0,1,244.886,41.6Zm17.535,29.8L243.476,90.348a2.168,2.168,0,0,1-3.033,0L230.6,80.5a2.145,2.145,0,1,1,3.033-3.033l6.839,6.839a2.168,2.168,0,0,0,3.033,0l15.939-15.939a2.168,2.168,0,0,1,3.033,0A2.221,2.221,0,0,1,262.421,71.4Z" transform="translate(-155.586 -30.531)"/>
    </g>
  </g>
</svg>
