<svg xmlns="http://www.w3.org/2000/svg" xmlns:xlink="http://www.w3.org/1999/xlink" viewBox="0 0 152.293 152.293">
  <defs>
    <style>
      .cls-1 {
        clip-path: url(#clip-Artboard_5);
      }

      .cls-2 {
        fill: #3fbd53;
      }

      .cls-3 {
        fill: #f22;
      }

      .cls-4 {
        fill: #fff;
      }
    </style>
    <clipPath id="clip-Artboard_5">
      <rect width="152.293" height="152.293"/>
    </clipPath>
  </defs>
  <g id="Artboard_5" data-name="Artboard – 5" class="cls-1">
    }
.
    <g id="Group_132" data-name="Group 132" transform="translate(10.721 10.967)">
      <path id="Path_184" data-name="Path 184" class="cls-2" d="M681.4,244.862a1.985,1.985,0,0,1-.692-.106A65.99,65.99,0,0,1,637.1,200.212h-2.687a32.77,32.77,0,0,0-11.735,2.182,2.439,2.439,0,0,1-1.836-.053,2.286,2.286,0,0,1-1.224-1.357,11.749,11.749,0,0,0-8.728-7.584v15.806a2.348,2.348,0,0,1-.612,1.6,32.983,32.983,0,0,0-7.557,13.544,2.363,2.363,0,0,1-2.262,1.73H592.1v14.1h8.355a2.309,2.309,0,0,1,2.262,1.73,32.816,32.816,0,0,0,7.557,13.544,2.373,2.373,0,0,1,.639,1.6v16.019h14.1v-5.4a2.312,2.312,0,0,1,.852-1.809,2.393,2.393,0,0,1,1.969-.479,34,34,0,0,0,6.572.665h23.5a32.027,32.027,0,0,0,6.572-.665,2.393,2.393,0,0,1,1.969.479,2.308,2.308,0,0,1,.852,1.809v5.4h14.1V257.022a2.348,2.348,0,0,1,.612-1.6,32.766,32.766,0,0,0,7.584-13.6,69.513,69.513,0,0,1-7.5,2.927A1.985,1.985,0,0,1,681.4,244.862Zm-63.436-14.1a4.71,4.71,0,1,1,4.71-4.71A4.7,4.7,0,0,1,617.964,230.759Z" transform="translate(-592.1 -141.938)"/>
      <path id="Path_185" data-name="Path 185" class="cls-2" d="M811.374.213,811.081,0l-.293.186A79.61,79.61,0,0,1,768.8,13.6v26.05a61.282,61.282,0,0,0,42.308,58.46,61.316,61.316,0,0,0,42.308-58.46V13.6A80,80,0,0,1,811.374.213ZM848.68,39.648a56.347,56.347,0,0,1-36.774,53.192,2.211,2.211,0,0,1-1.65,0,56.359,56.359,0,0,1-36.774-53.192V20.17a2.361,2.361,0,0,1,2.1-2.342,83.664,83.664,0,0,0,34.3-11.5,2.33,2.33,0,0,1,2.421,0,84.1,84.1,0,0,0,34.3,11.522,2.361,2.361,0,0,1,2.1,2.342V39.648Z" transform="translate(-721.781 0)"/>
      <path id="Path_189" data-name="Path 189" class="cls-3" d="M836.986,41.6A88.084,88.084,0,0,1,804.1,52.776v17.4a51.721,51.721,0,0,0,32.889,48.482,51.618,51.618,0,0,0,32.889-48.482V52.8A88.287,88.287,0,0,1,836.986,41.6ZM847.5,85.9a3.01,3.01,0,1,1-4.257,4.257l-6.413-6.413-6.413,6.413a3.01,3.01,0,0,1-4.257-4.257l6.413-6.413-1.144-1.144-5.269-5.242a3.01,3.01,0,0,1,4.257-4.257l6.413,6.413,6.413-6.413a3.01,3.01,0,0,1,4.258,4.257l-5.242,5.242-1.144,1.144Z" transform="translate(-747.686 -30.531)"/>
    </g>
  </g>
</svg>
