<svg xmlns="http://www.w3.org/2000/svg" xmlns:xlink="http://www.w3.org/1999/xlink" viewBox="0 0 152.293 152.293">
  <defs>
    <style>
      .cls-1 {
        clip-path: url(#clip-Artboard_6);
      }

      .cls-2 {
        fill: #3fbd53;
      }

      .cls-3 {
        fill: #3fbd53;
      }

      .cls-4 {
        fill: #fff;
      }
    </style>
    <clipPath id="clip-Artboard_6">
      <rect width="152.293" height="152.293"/>
    </clipPath>
  </defs>
  <g id="Artboard_6" data-name="Artboard – 6" class="cls-1">
    <g id="surface1_1_" transform="translate(10.44 10.967)">
      <path id="Path_186" data-name="Path 186" class="cls-2" d="M1467.686,41.6A88.083,88.083,0,0,1,1434.8,52.776v17.4a51.721,51.721,0,0,0,32.889,48.482,51.618,51.618,0,0,0,32.889-48.482V52.8A88.287,88.287,0,0,1,1467.686,41.6Zm.266,63.223a3.406,3.406,0,1,1,3.406-3.406A3.413,3.413,0,0,1,1467.952,104.823Zm3.406-20.755v3.22a3.406,3.406,0,1,1-6.812,0v-6.2a3.412,3.412,0,0,1,3.406-3.406,7.69,7.69,0,1,0-7.318-10.032,3.4,3.4,0,0,1-3.22,2.342h0a3.383,3.383,0,0,1-3.246-4.391,14.476,14.476,0,1,1,17.189,18.467Z" transform="translate(-1378.386 -30.531)"/>
      <path id="Path_187" data-name="Path 187" class="cls-3" d="M1312.1,244.862a1.986,1.986,0,0,1-.692-.106,65.99,65.99,0,0,1-43.612-44.544h-2.687a32.769,32.769,0,0,0-11.735,2.182,2.439,2.439,0,0,1-1.836-.053,2.285,2.285,0,0,1-1.224-1.357,11.749,11.749,0,0,0-8.728-7.584v15.806a2.347,2.347,0,0,1-.612,1.6,32.983,32.983,0,0,0-7.557,13.544,2.363,2.363,0,0,1-2.262,1.73H1222.8v14.1h8.355a2.309,2.309,0,0,1,2.262,1.73,32.816,32.816,0,0,0,7.557,13.544,2.373,2.373,0,0,1,.639,1.6v16.019h14.1v-5.4a2.312,2.312,0,0,1,.851-1.809,2.393,2.393,0,0,1,1.969-.479,34,34,0,0,0,6.572.665h23.5a32.025,32.025,0,0,0,6.572-.665,2.393,2.393,0,0,1,1.969.479,2.308,2.308,0,0,1,.851,1.809v5.4h14.1V257.022a2.348,2.348,0,0,1,.612-1.6,32.764,32.764,0,0,0,7.584-13.6,69.5,69.5,0,0,1-7.5,2.927A1.983,1.983,0,0,1,1312.1,244.862Zm-63.436-14.1a4.71,4.71,0,1,1,4.71-4.71A4.7,4.7,0,0,1,1248.664,230.759Z" transform="translate(-1222.8 -141.938)"/>
      <path id="Path_188" data-name="Path 188" class="cls-3" d="M1442,.213,1441.708,0l-.293.186A79.625,79.625,0,0,1,1399.4,13.6v26.05a61.282,61.282,0,0,0,42.308,58.46,61.316,61.316,0,0,0,42.308-58.46V13.6A79.907,79.907,0,0,1,1442,.213Zm37.306,39.435a56.347,56.347,0,0,1-36.774,53.192,2.211,2.211,0,0,1-1.65,0,56.321,56.321,0,0,1-36.774-53.192V20.17a2.361,2.361,0,0,1,2.1-2.342,83.665,83.665,0,0,0,34.3-11.5,2.33,2.33,0,0,1,2.421,0,84.1,84.1,0,0,0,34.3,11.522,2.361,2.361,0,0,1,2.1,2.342V39.648Z" transform="translate(-1352.408)"/>
    </g>
  </g>
</svg>
