<svg xmlns="http://www.w3.org/2000/svg" xmlns:xlink="http://www.w3.org/1999/xlink" viewBox="0 0 152.293 152.293">
  <defs>
    <style>
      .cls-1 {
        clip-path: url(#clip-Artboard_7);
      }

      .cls-2 {
        fill: #00bdcc;
      }

      .cls-3 {
        fill: #fff;
      }
    </style>
    <clipPath id="clip-Artboard_7">
      <rect width="152.293" height="152.293"/>
    </clipPath>
  </defs>
  <g id="Artboard_7" data-name="Artboard – 7" class="cls-1">
    
    <g id="Group_114" data-name="Group 114" transform="translate(17107 5388.319)">
      <path id="Path_123" data-name="Path 123" class="cls-2" d="M163.6,24.8,145.2,6.4V22.626a2.114,2.114,0,0,0,2.123,2.123H163.6Z" transform="translate(-17152.713 -5375.134)"/>
      <g id="Group_68" data-name="Group 68" transform="translate(-17076 -5371.753)">
        <path id="Path_124" data-name="Path 124" class="cls-2" d="M46.139,132.339a2.107,2.107,0,0,1-3.019,0l-6.415-6.415,3.019-3.019,4.905,4.905,4.292-4.292V118H31.8v17.122H48.922V129.6Z" transform="translate(-16.801 -62.342)"/>
        <path id="Path_125" data-name="Path 125" class="cls-2" d="M46.139,68.786a2.107,2.107,0,0,1-3.019,0l-6.415-6.415,3.019-3.019,4.905,4.905,4.292-4.292V54.4H31.8V71.522H48.922V66Z" transform="translate(-16.801 -28.741)"/>
        <path id="Path_126" data-name="Path 126" class="cls-2" d="M46.139,195.839a2.107,2.107,0,0,1-3.019,0l-6.415-6.415,3.019-3.019,4.905,4.905,4.292-4.292V181.5H31.8v17.122H48.922V193.1Z" transform="translate(-16.801 -95.891)"/>
        <path id="Path_127" data-name="Path 127" class="cls-2" d="M89.9,25.659H70.657a6.422,6.422,0,0,1-6.415-6.415V0H6.415A6.422,6.422,0,0,0,0,6.415V113.438a6.422,6.422,0,0,0,6.415,6.415H83.487a6.422,6.422,0,0,0,6.415-6.415ZM36.366,92.92v9.811a4.308,4.308,0,0,1-4.292,4.292H15a4.308,4.308,0,0,1-4.292-4.292V85.609A4.308,4.308,0,0,1,15,81.317H32.121a4.308,4.308,0,0,1,4.292,4.292v1.274l2.736-2.736,3.019,3.019Zm0-29.951V72.78a4.308,4.308,0,0,1-4.292,4.292H15a4.308,4.308,0,0,1-4.292-4.292V55.658A4.308,4.308,0,0,1,15,51.366H32.121a4.308,4.308,0,0,1,4.292,4.292v1.274L39.149,54.2l3.019,3.019Zm0-30v9.811a4.308,4.308,0,0,1-4.292,4.292H15a4.308,4.308,0,0,1-4.292-4.292V25.659A4.308,4.308,0,0,1,15,21.367H32.121a4.308,4.308,0,0,1,4.292,4.292v1.274L39.149,24.2l3.019,3.019ZM74.9,107.023H53.488v-4.292H74.9Zm0-12.877H53.488V89.854H74.9Zm0-17.122H53.488V72.733H74.9Zm0-12.83H53.488V59.9H74.9Zm0-17.122H53.488V42.781H74.9Zm0-12.83H53.488V29.951H74.9Z"/>
      </g>
    </g>
  </g>
</svg>
