<svg xmlns="http://www.w3.org/2000/svg" xmlns:xlink="http://www.w3.org/1999/xlink" viewBox="0 0 152.293 152.293">
  <defs>
    <style>
      .cls-1 {
        clip-path: url(#clip-Artboard_8);
      }

      .cls-2 {
        fill: #ffce00;
      }

      .cls-3 {
        fill: #fff;
      }
    </style>
    <clipPath id="clip-Artboard_8">
      <rect width="152.293" height="152.293"/>
    </clipPath>
  </defs>
  <g id="Artboard_8" data-name="Artboard – 8" class="cls-1">
    
    <g id="Group_113" data-name="Group 113" transform="translate(30.721 16.567)">
      <path id="Path_128" data-name="Path 128" class="cls-2" d="M286.639,132.339a2.107,2.107,0,0,1-3.019,0l-6.415-6.415,3.019-3.019,4.905,4.905,4.292-4.292V118H272.3v17.122h17.122V129.6Z" transform="translate(-257.301 -62.342)"/>
      <path id="Path_129" data-name="Path 129" class="cls-2" d="M286.639,68.786a2.107,2.107,0,0,1-3.019,0l-6.415-6.415,3.019-3.019,4.905,4.905,4.292-4.292V54.4H272.3V71.522h17.122V66Z" transform="translate(-257.301 -28.741)"/>
      <path id="Path_130" data-name="Path 130" class="cls-2" d="M404,24.8,385.6,6.4V22.626a2.114,2.114,0,0,0,2.123,2.123H404Z" transform="translate(-317.16 -3.381)"/>
      <rect id="Rectangle_18" data-name="Rectangle 18" class="cls-2" width="17.216" height="17.216" transform="translate(14.952 85.515)"/>
      <path id="Path_131" data-name="Path 131" class="cls-2" d="M311.11,25.659a6.421,6.421,0,0,1-6.415-6.415V0h-57.78A6.422,6.422,0,0,0,240.5,6.415V113.438a6.422,6.422,0,0,0,6.415,6.415H323.94a6.422,6.422,0,0,0,6.415-6.415V25.706H311.11Zm-59.9,0a4.308,4.308,0,0,1,4.292-4.292h17.122a4.308,4.308,0,0,1,4.292,4.292v1.274l2.736-2.736,3.019,3.019-5.8,5.8v9.811a4.308,4.308,0,0,1-4.292,4.292H255.452a4.308,4.308,0,0,1-4.292-4.292l.047-17.169Zm0,30a4.308,4.308,0,0,1,4.292-4.292h17.122a4.308,4.308,0,0,1,4.292,4.292v1.274l2.736-2.736,3.019,3.019-5.8,5.8v9.811a4.308,4.308,0,0,1-4.292,4.292H255.452a4.308,4.308,0,0,1-4.292-4.292l.047-17.169Zm21.367,51.366H255.452a4.308,4.308,0,0,1-4.292-4.292V85.609a4.308,4.308,0,0,1,4.292-4.292h17.122a4.261,4.261,0,0,1,4.2,3.4V99.524h.094v3.207A4.308,4.308,0,0,1,272.574,107.023Zm42.828,0H293.988v-4.292H315.4Zm0-12.877H293.988V89.854H315.4Zm0-17.122H293.988V72.733H315.4Zm0-12.83H293.988V59.9H315.4Zm0-17.122H293.988V42.781H315.4Zm0-12.83H293.988V29.951H315.4Z" transform="translate(-240.5)"/>
    </g>
  </g>
</svg>
