<svg xmlns="http://www.w3.org/2000/svg" xmlns:xlink="http://www.w3.org/1999/xlink" viewBox="0 0 152.293 152.293">
  <defs>
    <style>
      .cls-1 {
        clip-path: url(#clip-Artboard_9);
      }

      .cls-2 {
        fill: #f22;
      }

      .cls-3 {
        fill: #fff;
      }
    </style>
    <clipPath id="clip-Artboard_9">
      <rect width="152.293" height="152.293"/>
    </clipPath>
  </defs>
  <g id="Artboard_9" data-name="Artboard – 9" class="cls-1">
    
    <g id="Group_112" data-name="Group 112" transform="translate(31.44 16.567)">
      <path id="Path_132" data-name="Path 132" class="cls-2" d="M520.839,68.786a2.107,2.107,0,0,1-3.019,0l-6.415-6.415,3.019-3.019,4.905,4.905,4.292-4.292V54.4H506.5V71.522h17.122V66Z" transform="translate(-491.501 -28.741)"/>
      <path id="Path_133" data-name="Path 133" class="cls-2" d="M638.3,24.8,619.9,6.4V22.626a2.114,2.114,0,0,0,2.123,2.123H638.3Z" transform="translate(-551.413 -3.381)"/>
      <rect id="Rectangle_19" data-name="Rectangle 19" class="cls-2" width="17.216" height="17.216" transform="translate(14.999 85.515)"/>
      <path id="Path_134" data-name="Path 134" class="cls-2" d="M545.31,25.659a6.421,6.421,0,0,1-6.415-6.415V0h-57.78A6.422,6.422,0,0,0,474.7,6.415V113.438a6.422,6.422,0,0,0,6.415,6.415H558.14a6.422,6.422,0,0,0,6.415-6.415V25.706H545.31Zm-59.9,0a4.308,4.308,0,0,1,4.292-4.292h17.122a4.308,4.308,0,0,1,4.292,4.292v1.274l2.736-2.736,3.019,3.019-5.8,5.8v9.811a4.308,4.308,0,0,1-4.292,4.292H489.652a4.308,4.308,0,0,1-4.292-4.292l.047-17.169Zm25.706,77.072a4.308,4.308,0,0,1-4.292,4.292H489.7a4.308,4.308,0,0,1-4.292-4.292V85.609a4.308,4.308,0,0,1,4.292-4.292h17.122a4.261,4.261,0,0,1,4.2,3.4V99.524h.094Zm-4.292-25.706H489.7a4.308,4.308,0,0,1-4.292-4.292V55.658a4.308,4.308,0,0,1,4.292-4.292h17.122a4.3,4.3,0,0,1,4.292,4.056v13.4h0V72.78A4.268,4.268,0,0,1,506.821,77.025Zm42.781,30H528.188v-4.292H549.6Zm0-12.877H528.188V89.854H549.6Zm0-17.122H528.188V72.733H549.6Zm0-12.83H528.188V59.9H549.6Zm0-17.122H528.188V42.781H549.6Zm0-12.83H528.188V29.951H549.6Z" transform="translate(-474.7)"/>
      <rect id="Rectangle_20" data-name="Rectangle 20" class="cls-2" width="17.216" height="17.216" transform="translate(14.999 55.564)"/>
    </g>
  </g>
</svg>
