<svg xmlns="http://www.w3.org/2000/svg" xmlns:xlink="http://www.w3.org/1999/xlink" viewBox="0 0 152.293 152.293">
  <defs>
    <style>
      .cls-1 {
        clip-path: url(#clip-Artboard_11);
      }

      .cls-2 {
        fill: #f22;
      }

      .cls-3 {
        fill: #fff;
      }
    </style>
    <clipPath id="clip-Artboard_11">
      <rect width="152.293" height="152.293"/>
    </clipPath>
  </defs>
  <g id="Artboard_11" data-name="Artboard – 11" class="cls-1">
    
    <g id="Group_115" data-name="Group 115" transform="translate(21 21.133)">
      <g id="Group_74" data-name="Group 74">
        <path id="Path_137" data-name="Path 137" class="cls-2" d="M101.517,65.784V18.458a9.261,9.261,0,0,0-9.229-9.229H80.771a2.3,2.3,0,0,0-2.288,2.288V23.034a4.614,4.614,0,0,1-9.229,0,4.547,4.547,0,0,1,3.089-4.309,2.306,2.306,0,0,0,1.525-2.174V2.288a2.288,2.288,0,0,0-4.576,0v6.9h-34.7A2.3,2.3,0,0,0,32.3,11.479V23a4.614,4.614,0,0,1-9.229,0,4.547,4.547,0,0,1,3.089-4.309,2.306,2.306,0,0,0,1.525-2.174V2.288a2.288,2.288,0,0,0-4.576,0v6.9H9.229A9.319,9.319,0,0,0,0,18.458v73.83a9.261,9.261,0,0,0,9.229,9.229H65.784a25.378,25.378,0,1,0,35.733-35.733ZM59.987,85.347a24.162,24.162,0,0,0,.992,6.9H9.229V36.915H92.288V60.979a26.024,26.024,0,0,0-6.9-.992A25.406,25.406,0,0,0,59.987,85.347Zm30.28,8.161-4.881-4.881-4.919,4.881a2.319,2.319,0,0,1-3.28-3.28l4.881-4.881-.877-.877-3.966-4a2.319,2.319,0,0,1,3.28-3.28l4.881,4.881,4.881-4.881a2.319,2.319,0,0,1,3.28,3.28l-4,4-.877.877,4.881,4.881a2.319,2.319,0,1,1-3.28,3.28Z"/>
      </g>
    </g>
  </g>
</svg>
