<svg xmlns="http://www.w3.org/2000/svg" xmlns:xlink="http://www.w3.org/1999/xlink" viewBox="0 0 152.293 152.293">
  <defs>
    <style>
      .cls-1 {
        clip-path: url(#clip-Artboard_12);
      }

      .cls-2 {
        fill: #ffce00;
      }

      .cls-3 {
        fill: #fff;
      }
    </style>
    <clipPath id="clip-Artboard_12">
      <rect width="152.293" height="152.293"/>
    </clipPath>
  </defs>
  <g id="Artboard_12" data-name="Artboard – 12" class="cls-1">
    
    <path id="Path_192" data-name="Path 192" class="cls-2" d="M469.079,65.784V18.458a9.261,9.261,0,0,0-9.229-9.229H448.333a2.3,2.3,0,0,0-2.288,2.288V23.034a4.614,4.614,0,0,1-9.229,0,4.547,4.547,0,0,1,3.089-4.309,2.306,2.306,0,0,0,1.525-2.174V2.288a2.288,2.288,0,1,0-4.576,0v6.9H402.265a2.3,2.3,0,0,0-2.288,2.288V23a4.673,4.673,0,0,1-9.343.076,4.547,4.547,0,0,1,3.089-4.309,2.306,2.306,0,0,0,1.525-2.174V2.288a2.288,2.288,0,0,0-4.576,0v6.9H376.829a9.261,9.261,0,0,0-9.229,9.229V92.288a9.261,9.261,0,0,0,9.229,9.229h56.555a25.369,25.369,0,1,0,35.695-35.733ZM452.909,99.877a2.364,2.364,0,1,1,2.364-2.364A2.328,2.328,0,0,1,452.909,99.877Zm-2.326-11.25V70.741a2.3,2.3,0,0,1,2.288-2.288h0a2.3,2.3,0,0,1,2.288,2.288V88.627a2.3,2.3,0,0,1-2.288,2.288h0A2.3,2.3,0,0,1,450.583,88.627Zm9.267-27.648a26.023,26.023,0,0,0-6.9-.992,25.4,25.4,0,0,0-25.36,25.36,24.161,24.161,0,0,0,.992,6.9H376.791V36.915H459.85Z" transform="translate(-346.879 21.133)"/>
  </g>
</svg>
