<svg xmlns="http://www.w3.org/2000/svg" viewBox="0 0 104.127 112.331">
  <defs>
    <style>
      .cls-1 {
        fill: #3fbd53;
      }
    </style>
  </defs>
  <g id="Group_67" data-name="Group 67" transform="translate(21310.65 5731.715)">
    <g id="surface1_4_" transform="translate(-21310.65 -5705.058)">
      <path id="Path_108" data-name="Path 108" class="cls-1" d="M854.477,171.11a12.966,12.966,0,0,1,12.983-12.983h20.4V141.421H806.994l-.2.066-.033-.066h-2.405c-.461,0-.89-.033-1.318-.066a2.226,2.226,0,0,0-.461-.066,7.7,7.7,0,0,1-.857-.132c-.2-.033-.362-.1-.527-.132a5.927,5.927,0,0,1-.725-.2c-.2-.066-.362-.132-.56-.2s-.428-.165-.626-.231c-.2-.1-.362-.2-.56-.3l-.593-.3c-.2-.1-.362-.231-.56-.33a2.847,2.847,0,0,1-.527-.33c-.165-.132-.33-.264-.527-.4-.165-.132-.33-.231-.494-.362s-.33-.3-.494-.428a2.46,2.46,0,0,0-.461-.4L795,137.5v57.73a9.324,9.324,0,0,0,9.292,9.292h83.531v-20.43h-20.4A13,13,0,0,1,854.477,171.11Zm21.484-24.153h6.36v3.723h-6.36Zm-14.861,0h7.414v3.723H861.1Zm-51.964,52h-4.778a13.9,13.9,0,0,1-3.064-.362L802.15,195a9.811,9.811,0,0,0,2.175.264H809.1Zm0-48.273h-4.778a13.9,13.9,0,0,1-3.064-.362l.857-3.592a9.812,9.812,0,0,0,2.175.264H809.1ZM824,198.954h-7.414V195.23H824Zm0-48.273h-7.414v-3.723H824Zm14.828,48.273h-7.414V195.23h7.414Zm0-48.273h-7.414v-3.723h7.414Zm14.861,48.273h-7.414V195.23h7.414Zm0-48.273h-7.414v-3.723h7.414Zm22.275,44.55h6.36v3.723h-6.36Zm-7.414,3.723h-7.414V195.23h7.414Z" transform="translate(-794.901 -118.85)"/>
      <path id="Path_109" data-name="Path 109" class="cls-1" d="M1095.547,181.223a3.72,3.72,0,0,0-3.724-3.723H1088.1v7.414h3.724A3.713,3.713,0,0,0,1095.547,181.223Z" transform="translate(-991.421 -145.669)"/>
      <path id="Path_110" data-name="Path 110" class="cls-1" d="M1026.7,208.628a5.2,5.2,0,0,1-1.219.362c-.1.033-.2.033-.33.066a5.964,5.964,0,0,1-1.318.132H995.992a9.292,9.292,0,0,0,0,18.584h27.844a3.72,3.72,0,0,0,3.724-3.723V208.2a3.322,3.322,0,0,1-.758.4Zm-30.71,15.454a5.569,5.569,0,1,1,5.569-5.569A5.541,5.541,0,0,1,995.992,224.082Z" transform="translate(-923.434 -166.253)"/>
      <path id="Path_111" data-name="Path 111" class="cls-1" d="M1013.091,235.743a1.842,1.842,0,0,1-1.845,1.845,1.864,1.864,0,0,1-1.845-1.845,1.842,1.842,0,0,1,1.845-1.845A1.8,1.8,0,0,1,1013.091,235.743Z" transform="translate(-938.654 -183.483)"/>
      <path id="Path_112" data-name="Path 112" class="cls-1" d="M804.124,80.9h83.63V99.781h-83.63a9.422,9.422,0,0,1-9.424-9.424h0A9.429,9.429,0,0,1,804.124,80.9Z" transform="translate(-794.7 -80.9)"/>
    </g>
    <path id="Path_121" data-name="Path 121" class="cls-1" d="M1008.879,11.665h0a4.5,4.5,0,0,0-4.514-4.514h-.758l.1-.1a1.375,1.375,0,0,0,0-1.878,1.375,1.375,0,0,0-1.878,0l-.1.1V4.514A4.5,4.5,0,0,0,997.214,0h0A4.5,4.5,0,0,0,992.7,4.514h0a4.5,4.5,0,0,0,4.514,4.514h.758l-.231.231a1.328,1.328,0,1,0,1.878,1.878l.231-.231v.758a4.5,4.5,0,0,0,4.514,4.514h0A4.521,4.521,0,0,0,1008.879,11.665Z" transform="translate(-22238.107 -5731.715)"/>
    <path id="Path_122" data-name="Path 122" class="cls-1" d="M859.6,54.716a1,1,0,0,1-.89-.527,9.027,9.027,0,0,1-.428-.956,1.034,1.034,0,0,1,1.911-.791c.2.461.362.758.362.758a1.032,1.032,0,0,1-.428,1.384A1.763,1.763,0,0,1,859.6,54.716Zm31.37-5.206a1.055,1.055,0,0,1-1.021-.857,1.038,1.038,0,0,1,.857-1.186,7.289,7.289,0,0,0,.824-.165,1.035,1.035,0,0,1,.494,2.01c-.33.066-.659.165-.989.2C891.068,49.476,891,49.509,890.969,49.509Zm-7.348-.989a1.17,1.17,0,0,1-.329-.066c-.3-.1-.593-.2-.89-.33a1.022,1.022,0,0,1,.725-1.911c.3.1.56.2.857.3a1.028,1.028,0,0,1,.626,1.318A1.06,1.06,0,0,1,883.62,48.521ZM859.1,46.643a1.111,1.111,0,0,1-.56-.165,1.016,1.016,0,0,1-.3-1.417,4.6,4.6,0,0,1,.692-.89,1.025,1.025,0,0,1,1.483,1.417,3.8,3.8,0,0,0-.461.56A.993.993,0,0,1,859.1,46.643Zm39.113-1.12a1.052,1.052,0,0,1-.758-.33,1.006,1.006,0,0,1,.033-1.45l.33-.33a1.025,1.025,0,0,1,1.45,1.45,3.751,3.751,0,0,0-.362.362A.949.949,0,0,1,898.218,45.522Zm-22.44-.066a1.171,1.171,0,0,1-.33-.066c-.3-.1-.56-.2-.857-.3a1.021,1.021,0,1,1,.626-1.944c.3.1.593.2.923.3a1.041,1.041,0,0,1,.626,1.318A1.061,1.061,0,0,1,875.778,45.456Zm-8.2-1.681h-.923a1.027,1.027,0,0,1-1.021-1.021,1.078,1.078,0,0,1,1.021-1.054h.989a1.027,1.027,0,0,1,.989,1.054A1.055,1.055,0,0,1,867.573,43.776Z" transform="translate(-22147.842 -5759.675)"/>
  </g>
</svg>
